<svg xmlns="http://www.w3.org/2000/svg" xmlns:xlink="http://www.w3.org/1999/xlink" viewBox="0 0 640 640" width="640" height="640"><defs><path d="M165.87 213.25l123.92-86.75v347l-123.28-86.3-.03-.02-.03-.03-.03-.02-.04-.02-.02-.02-.03-.03-.02-.03-.02-.02-.03-.03-.03-.02-.02-.03-.02-.03-.03-.03-.01-.03-.02-.03-.03-.03-.01-.02-.03-.03-.01-.04-.02-.03-.01-.03-.02-.03-.01-.03-.02-.04-.01-.03-.01-.03-.01-.04-.01-.03-.01-.04-.01-.03-.01-.04-.01-.03-.01-.03v-.04l-.01-.04v-.18.78H103.9v-173.5h61.97z" id="a"/><path d="M416.07 297.41c0-40.36-22.86-69.94-68.6-88.75.12 12.18.68 73.07 1.69 182.68 44.61-35.71 66.91-67.02 66.91-93.93z" id="b"/><path d="M378.55 81.42l8.19 5.27 7.96 5.3 7.75 5.33 7.52 5.35 7.31 5.37 7.1 5.41 6.87 5.43 6.65 5.45 6.44 5.48 6.22 5.51 6.01 5.53 5.78 5.56 5.56 5.59 5.35 5.61 5.13 5.63 4.9 5.66 4.7 5.69 4.47 5.72 4.26 5.74 4.03 5.76 3.82 5.79 3.6 5.82 3.38 5.84 3.16 5.87 2.95 5.89 2.73 5.92 2.51 5.95 2.29 5.97 2.07 6 1.86 6.02 1.63 6.05 1.42 6.08 1.2 6.09.98 6.13.77 6.16.55 6.17.32 6.21.11 6.23-.11 6.23-.32 6.21-.55 6.17-.77 6.16-.98 6.13-1.2 6.09-1.42 6.08-1.63 6.05-1.86 6.02-2.07 6-2.29 5.97-2.51 5.95-2.73 5.92-2.95 5.89-3.16 5.87-3.38 5.84-3.6 5.82-3.82 5.79-4.03 5.76-4.26 5.74-4.47 5.72-4.7 5.69-4.9 5.66-5.13 5.63-5.35 5.61-5.56 5.59-5.78 5.56-6.01 5.53-6.22 5.51-6.44 5.48-6.65 5.45-6.87 5.43-7.1 5.41-7.31 5.37-7.52 5.35-7.75 5.33-7.96 5.3-8.19 5.27-8.4 5.26-7.45 4.51v-59.52l6.12-3.55 5.98-3.58 5.82-3.62 5.66-3.65 5.51-3.69 5.35-3.71 5.19-3.76 5.05-3.79 4.88-3.82 4.73-3.86 4.58-3.89 4.42-3.93 4.27-3.96 4.11-4 3.95-4.03 3.8-4.06 3.65-4.1 3.49-4.14 3.34-4.16 3.18-4.21 3.02-4.23 2.87-4.27 2.71-4.31 2.57-4.35 2.4-4.38 2.25-4.4 2.1-4.45 1.93-4.48 1.79-4.52 1.62-4.54 1.48-4.58 1.32-4.62 1.16-4.65 1.01-4.69.86-4.72.69-4.76.54-4.79.39-4.83.23-4.86.08-4.89-.08-4.89-.23-4.86-.39-4.83-.54-4.78-.69-4.75-.86-4.72-1.01-4.68-1.16-4.64-1.32-4.6-1.48-4.58-1.62-4.54-1.79-4.49-1.93-4.47-2.1-4.42-2.25-4.4-2.4-4.36-2.57-4.32-2.71-4.29-2.87-4.24-3.02-4.22-3.18-4.18-3.34-4.14-3.49-4.11-3.65-4.07-3.8-4.04-3.95-3.99-4.11-3.97-4.27-3.93-4.42-3.89-4.58-3.86-4.73-3.82-4.88-3.78-5.05-3.75-5.19-3.72-5.35-3.67-5.51-3.64-5.66-3.61-5.82-3.57-5.98-3.54-6.12-3.49v-60.5l7.45 4.51 8.4 5.26z" id="c"/></defs><use xlink:href="#a"/><use xlink:href="#a" fill-opacity="0" stroke-opacity="0"/><use xlink:href="#b"/><use xlink:href="#b" fill-opacity="0" stroke-opacity="0"/><use xlink:href="#c"/><use xlink:href="#c" fill-opacity="0" stroke-opacity="0"/></svg>