<svg xmlns="http://www.w3.org/2000/svg" xmlns:xlink="http://www.w3.org/1999/xlink" width="640" height="640"><defs><path d="M539 320c0 126.13-98.13 228.53-219 228.53S101 446.13 101 320 199.13 91.47 320 91.47 539 193.87 539 320z" id="a"/><clipPath id="c"><use xlink:href="#a"/></clipPath><path d="M383.07 320.23c0 36.96-28.51 66.97-63.62 66.97-35.12 0-63.63-30.01-63.63-66.97 0-36.96 28.51-66.97 63.63-66.97 35.11 0 63.62 30.01 63.62 66.97z" id="b"/><clipPath id="d"><use xlink:href="#b"/></clipPath><path d="M430.11 441.88c4.94-6.34 8.03-10.3 9.26-11.89a165.942 165.942 0 0 0 33.93-82.77c2.21-18.96-.53 4.6.68-5.79 6.48-55.52-15.53-110.56-58.51-146.31-2.43-2.02 12.69 10.55-1.36-1.13a136.801 136.801 0 0 0-23.16-15.57c-7.18-3.83-1.23-.66-4.63-2.47a155.687 155.687 0 0 0-66.71-18.19c-10.87-.46 4.35.19-3.41-.14-32.9-1.39-65.22 8.92-91.23 29.12-3.29 2.55-11.52 8.94-24.69 19.17" id="e"/><path d="M209.82 249.15c-3.6 4.62-5.85 7.51-6.75 8.67a120.922 120.922 0 0 0-24.73 60.31c-1.61 13.81.39-3.35-.49 4.22a120.493 120.493 0 0 0 42.63 106.61c1.77 1.47-9.24-7.69.99.83 5.23 4.34 10.88 8.14 16.88 11.34 5.23 2.79.89.48 3.37 1.8 15 8.01 31.62 12.54 48.61 13.25 7.92.34-3.17-.13 2.49.11 23.97 1.01 47.52-6.5 66.47-21.22 2.4-1.86 8.4-6.52 18-13.97" id="f"/></defs><g clip-path="url(#c)"><use xlink:href="#a" fill-opacity="0" stroke="#000" stroke-width="56"/></g><g clip-path="url(#d)"><use xlink:href="#b" fill-opacity="0" stroke="#000" stroke-width="56"/></g><use xlink:href="#e" fill-opacity="0" stroke="#000" stroke-width="28"/><use xlink:href="#f" fill-opacity="0" stroke="#000" stroke-width="28"/></svg>