<svg xmlns="http://www.w3.org/2000/svg" xmlns:xlink="http://www.w3.org/1999/xlink" viewBox="0 0 640 640" width="640" height="640"><defs><path d="M475.28 340c0 89.43-69.58 162.03-155.28 162.03S164.72 429.43 164.72 340 234.3 177.97 320 177.97 475.28 250.57 475.28 340z" id="a"/><clipPath id="c"><use xlink:href="#a"/></clipPath><path d="M352.56 340c0 18.91-14.59 34.27-32.56 34.27-17.97 0-32.56-15.36-32.56-34.27 0-18.91 14.59-34.27 32.56-34.27 17.97 0 32.56 15.36 32.56 34.27z" id="b"/><clipPath id="d"><use xlink:href="#b"/></clipPath><path d="M416.65 308.35c-.52-5.76-3.44-13.14-8.74-22.14-7.95-13.51-14.2-20.49-35.24-32.85-21.04-12.37-31.49-12.86-44.15-14.52-12.67-1.65-29.76-2.12-54.51 9.82-16.49 7.96-30.19 19.63-41.09 35" id="e"/><path d="M230.25 315.25c-5.72 13.24-8.48 25.59-8.29 37.05.29 17.19 4.42 31.57 23.81 54.82 19.38 23.25 34.94 32.19 55.79 36.52 20.85 4.34 42.49.55 57.16-8.64 9.78-6.13 16.87-14.13 21.28-24.01" id="f"/></defs><g clip-path="url(#c)"><use xlink:href="#a" fill-opacity="0" stroke-width="20"/></g><g clip-path="url(#d)"><use xlink:href="#b" fill-opacity="0" stroke-width="16"/></g><use xlink:href="#e" fill-opacity="0" stroke-width="16"/><use xlink:href="#f" fill-opacity="0" stroke-width="16"/></svg>