<svg xmlns="http://www.w3.org/2000/svg" xmlns:xlink="http://www.w3.org/1999/xlink" viewBox="0 0 640 640" width="640" height="640"><defs><path d="M462.35 428.17h-50.39" id="b"/><path d="M305.64 155c0 11.03-8.96 20-20 20s-20-8.97-20-20c0-11.04 8.96-20 20-20s20 8.96 20 20z" id="c"/><path d="M388.35 155.97c0 11.04-8.96 20-20 20s-20-8.96-20-20 8.96-20 20-20 20 8.96 20 20z" id="d"/><path d="M360.71 174c-15.24 31.67-24.76 51.46-28.57 59.38-1.85 3.85-7.32 3.87-9.21.04-3.92-7.97-13.72-27.87-29.41-59.72" id="e"/><path d="M321.55 246.98H181.38c-12.53 0-23.42 8.61-26.3 20.81-.08.36-.3 1.26-.64 2.7l-3.16 176.49c.87 6.04 1.41 9.82 1.63 11.33 1.89 13.11 12.85 23.02 26.08 23.57 1.47.06 5.14.22 11.01.46l283.1-.36 4.89-.6c12.47-1.54 21.72-12.32 21.33-24.87-.03-1.03-.11-3.59-.23-7.7l.91-175.1c-.23-1.41-.38-2.29-.43-2.64-2.29-13.9-14.3-24.09-28.38-24.09H321.55z" id="a"/><mask id="f" x="129.28" y="224.98" width="392.72" height="279.36" maskUnits="userSpaceOnUse"><path d="M129.28 224.98H522v279.36H129.28z"/><use xlink:href="#a"/></mask><path d="M461.93 321.55c0 14.63-11.59 26.5-25.87 26.5-14.28 0-25.87-11.87-25.87-26.5 0-14.62 11.59-26.5 25.87-26.5 14.28 0 25.87 11.88 25.87 26.5z" id="g"/><path d="M461.47 395.11h-50.4" id="h"/><path d="M206.35 303.59h166.92v125.16H206.35V303.59z" id="i"/></defs><use xlink:href="#b" fill-opacity="0" stroke-width="14"/><use xlink:href="#c" fill-opacity="0" stroke-width="14"/><use xlink:href="#d" fill-opacity="0" stroke-width="14"/><use xlink:href="#e" fill-opacity="0" stroke-width="14"/><g mask="url(#f)"><use xlink:href="#a" fill-opacity="0" stroke-width="22"/></g><use xlink:href="#g" fill-opacity="0" stroke-width="14"/><use xlink:href="#h" fill-opacity="0" stroke-width="14"/><use xlink:href="#i" fill-opacity="0" stroke-width="14"/></svg>