<svg xmlns="http://www.w3.org/2000/svg" xmlns:xlink="http://www.w3.org/1999/xlink" width="640" height="640"><defs><path d="M383.63 333.03c0 36.96-28.51 66.97-63.63 66.97-35.12 0-63.63-30.01-63.63-66.97 0-36.96 28.51-66.97 63.63-66.97 35.12 0 63.63 30.01 63.63 66.97z" id="a"/><path d="M400.49 509.63c4.06-2.27 6.61-3.68 7.62-4.25a247.574 247.574 0 0 0 105.7-115.53s-9.03 20.27-2.89 6.49c1.93-4.32 3.54-8.77 4.83-13.32 3.92-13.83 1.43-5.05 2.27-8.02a189.939 189.939 0 0 0-5.63-120.37 204.584 204.584 0 0 0-99.22-116.5c-1.69-.89-5.92-3.1-12.68-6.64-4.19-1.51-6.81-2.46-7.86-2.84a212.959 212.959 0 0 0-133.98-3.64c-.43.13-1.48.44-3.16.95-5.87 2.38-9.54 3.87-11 4.46a210.774 210.774 0 0 0-111.28 105.12c-.06.12-.21.44-.45.95-3.19 8.71-5.19 14.15-5.99 16.33a196.344 196.344 0 0 0-4.16 122.4c.54 1.87-3.24-11.14.45 1.54l5.17 15.46c5.94 15.65.85 2.25 1.79 4.72a195.423 195.423 0 0 0 98.99 107.25c1.53.72 5.35 2.54 11.48 5.44" id="b"/><path d="M372.47 453.5c2.65-1.47 4.31-2.4 4.97-2.77a161.376 161.376 0 0 0 68.91-75.31s-5.89 13.21-1.88 4.23c1.25-2.82 2.3-5.72 3.14-8.69 2.56-9.01.94-3.29 1.48-5.23 7.33-25.86 6.04-53.4-3.67-78.47a133.344 133.344 0 0 0-64.68-75.95c-1.1-.57-3.86-2.02-8.27-4.32-2.73-.99-4.44-1.61-5.12-1.86-28.1-10.17-58.73-11-87.35-2.37-.27.08-.96.29-2.06.62l-7.17 2.91a137.396 137.396 0 0 0-72.54 68.53c-.04.08-.14.28-.3.61l-3.9 10.65a127.981 127.981 0 0 0-2.71 79.8c.35 1.22-2.12-7.27.29 1l3.37 10.08c3.87 10.21.56 1.47 1.17 3.08a127.39 127.39 0 0 0 64.53 69.92c1 .47 3.49 1.65 7.48 3.54" id="c"/></defs><use xlink:href="#a"/><use xlink:href="#b" fill-opacity="0" stroke="#000" stroke-width="28"/><use xlink:href="#c" fill-opacity="0" stroke="#000" stroke-width="28"/></svg>