<svg xmlns="http://www.w3.org/2000/svg" xmlns:xlink="http://www.w3.org/1999/xlink" viewBox="0 0 640 640" width="640" height="640"><defs><path d="M357.65 337.31c0 18.04-14.76 32.69-32.93 32.69-18.18 0-32.93-14.65-32.93-32.69s14.75-32.69 32.93-32.69c18.17 0 32.93 14.65 32.93 32.69z" id="a"/><clipPath id="b"><use xlink:href="#a"/></clipPath><path d="M166.03 333.29c-.32 8.9-1.36 18.92 3.18 20.13 3.02.8 8.63 1.94 16.82 3.41 15.2 3.07 24.86 10.79 28.97 23.17 6.16 18.57 1.96 25.21-.93 31.23-2.9 6.02-12.62 15.79-11.46 20.25 1.15 4.46 5.09 7.38 10.94 13.52 5.86 6.14 8.42 10.55 12.48 11.03 2.03.23 9.74-6.8 18.01-12.52 8.28-5.72 22.59-7.39 30.96-4.65 16.74 5.48 22.03 18.01 25 26.14 2.97 8.13 3.04 20.22 6.04 21.46 2 .83 7.38 1.11 16.14.85 10.15.44 16.09.44 17.82 0 2.59-.66 2.52-14.24 6.09-23.4 3.5-8.97 10.6-15.56 17.93-18.91 14.81-6.76 21.66-5.66 30.98-1.19 9.32 4.47 17.67 14.28 20 12.56 2.33-1.72 21.2-19.79 23.03-23.34 1.83-3.54-4.8-9.35-9.4-18.03-4.6-8.68-9.47-16.29-4.89-31.74 4.58-15.45 15.3-20.48 22.11-24.29 6.81-3.81 24.31-3.84 27.05-6.02 2.74-2.19 2.8-31.66-.68-34.66-3.49-3-16.36-2.3-29.7-9.53-13.35-7.23-16.21-21.4-17.52-27.28-1.31-5.88-.05-13.45 4.05-22.26 4.1-8.82 13.93-16.43 13.37-20.89-.56-4.46-20.4-23.97-23.49-24.7-3.09-.73-13.48 9.09-20.02 12.18-6.54 3.09-18.62 4.81-24.98 3.28-6.36-1.54-11.05-2.59-18.93-10.12-7.88-7.53-6.91-8.8-10.86-18.97-3.96-10.17-.7-20.6-4.98-21.71-4.28-1.12-9.26-.97-15.23-.92-5.97.06-14.22-1.5-17.53 1.48-3.32 2.99-4.15 28.42-12.61 38.41-5.64 6.66-11.9 11.3-18.79 13.92-10.03 2.86-19.02 2.47-26.95-1.18-11.9-5.48-22.38-19.13-27.02-16.63-1.91 1.02-6.59 5.61-11.03 9.89-6.39 6.15-13.27 11.71-12.37 15.37.58 2.35 6.51 8.33 10.26 14.5 4.26 6.98 5.78 9.18 7.11 16.87 1.33 7.69 2.5 19.28-8.63 31.69-11.13 12.42-36.56 13.54-38.77 16.81-2.21 3.28-1.25 5.89-1.57 14.79z" id="c"/></defs><g clip-path="url(#b)"><use xlink:href="#a" fill-opacity="0" stroke-width="16"/></g><use xlink:href="#c" fill-opacity="0" stroke-width="18"/></svg>