<svg xmlns="http://www.w3.org/2000/svg" xmlns:xlink="http://www.w3.org/1999/xlink" width="640" height="640"><defs><path d="M349.12 100.02l.29.03.3.04.29.04.28.06.28.07.28.08.28.08.27.1.27.11.26.11.25.12.26.14.24.14.25.15.23.15.23.17.23.17.21.18.22.19.2.2.2.2.19.21.18.21.18.23.17.23.16.23.15.24.15.25.14.25.12.26.12.26.11.27.1.28.09.27.09.29.07.28.06.3.05.29 4.11 26.74.19 1.13.22 1.12.24 1.11.27 1.1.3 1.08.32 1.08.35 1.07.37 1.05.4 1.04.43 1.03.45 1.01.47 1.01.5.98.53.98.54.96.57.94.6.93.61.92.64.89.66.88.69.87.7.85.73.82.74.82.77.79.79.77.81.76.82.73.85.72.87.7.88.67.91.65.92.63.94.61.96.59.97.57 1 .54 1.01.52 1.02.49 1.05.47 1.05.45 1.06.41 1.07.39 1.07.36 1.08.33 1.08.3 1.09.28 1.09.24 1.09.22 1.1.19 1.1.16 1.1.14 1.1.1 1.1.08 1.1.05 1.11.03 1.1-.01 1.1-.03 1.1-.06 1.1-.09 1.09-.11 1.1-.14 1.08-.17 1.09-.2 1.08-.22 1.07-.26 1.07-.28 1.07-.3 1.06-.34 1.05-.36 1.04-.38 1.03-.42 1.03-.44 1.02-.47 1.01-.49 1-.53.98-.55.98-.57.97-.6.95-.63 21.5-14.56.24-.16.25-.15.25-.14.26-.13.26-.12.26-.11.26-.1.27-.09.27-.08.27-.08.27-.06.27-.05.28-.05.27-.03.28-.03.28-.01.27-.01h.28l.27.02.28.02.27.03.28.04.27.05.27.06.27.07.26.07.27.09.26.09.26.11.25.11.26.12.24.14.25.14.24.15.23.15.24.17.22.18.22.18.22.2.21.2 34.56 34.56.21.22.2.22.19.23.18.23.17.24.16.25.16.24.14.26.13.25.12.26.12.26.1.27.1.27.08.27.08.28.06.27.06.28.05.28.03.28.03.29.02.28v.57l-.01.28-.02.28-.04.28-.04.29-.05.28-.06.28-.08.27-.08.28-.09.27-.1.27-.12.27-.12.26-.13.26-.14.26-.16.26-.16.25-.17.24L480.53 217l-.66.93-.64.94-.61.96-.59.97-.56.98-.53.99-.51 1-.48 1.01-.45 1.02-.43 1.02-.4 1.04-.37 1.05-.35 1.05-.32 1.06-.29 1.06-.26 1.07-.24 1.08-.21 1.08-.19 1.09-.15 1.09-.13 1.09-.1 1.1-.07 1.1-.05 1.1-.02 1.1.01 1.11.04 1.1.07 1.11.09 1.1.12 1.11.15 1.1.18 1.1.2 1.1.24 1.09.26 1.1.29 1.08.32 1.09.35 1.08.37 1.07.41 1.07.43 1.06.45 1.05.48 1.03.51 1.01.53 1 .55.98.57.96.6.95.62.92.64.91.66.9.68.87.71.85.72.84.74.82.77.79.78.78.8.76.82.73.84.71.85.7.88.67.89.65.9.63.93.6.94.58.95.56.97.54.98.51 1 .49 1.01.46 1.03.44 1.04.41 1.05.39 1.06.36 1.08.34 1.09.31 1.1.29 1.11.25 1.12.23 25.48 4.91.29.06.28.07.28.08.27.09.27.09.27.11.25.11.26.13.25.13.24.14.24.15.23.15.22.17.22.17.22.17.2.19.2.19.2.2.18.2.18.21.18.22.16.22.16.23.15.23.14.24.13.24.13.25.12.25.11.26.1.26.09.26.08.27.07.27.07.28.05.28.05.28.03.28.03.29.01.29.01.29v48.89l-.01.3-.01.3-.03.29-.04.29-.04.29-.06.29-.07.28-.08.28-.08.27-.1.28-.11.26-.11.26-.12.26-.14.25-.14.25-.15.24-.16.24-.16.23-.17.22-.18.22-.19.21-.2.21-.2.2-.21.19-.22.18-.22.18-.23.17-.24.16-.24.15-.25.14-.25.14-.26.13-.26.12-.27.11-.28.1-.28.09-.28.08-.29.07-.29.06-.3.05-26.74 4.12-1.13.18-1.12.22-1.11.24-1.09.27-1.09.3-1.08.32-1.06.35-1.06.37-1.04.4-1.03.43-1.01.45-1.01.47-.98.5-.98.53-.96.54-.94.57-.93.6-.91.61-.9.64-.88.66-.87.68-.84.71-.83.72-.81.75-.8.77-.77.79-.76.8-.73.83-.72.85-.69.87-.68.88-.65.91-.63.92-.61.94-.59.96-.56.97-.55 1-.51 1.01-.5 1.02-.47 1.05-.44 1.05-.42 1.06-.39 1.07-.36 1.07-.33 1.08-.3 1.08-.27 1.09-.25 1.09-.22 1.09-.19 1.1-.16 1.1-.14 1.1-.1 1.1-.08 1.1-.05 1.11-.03 1.1.01 1.1.03 1.1.06 1.1.09 1.1.11 1.1.14 1.09.17 1.09.2 1.08.23 1.08.25 1.08.28 1.07.3 1.06.34 1.06.36 1.05.39 1.04.41 1.04.44 1.03.47 1.01.5 1.01.52 1 .55.99.57.98.61.97.63.95 14.55 21.5.16.24.15.25.14.25.13.26.12.26.11.26.1.26.09.27.09.27.07.27.06.27.06.27.04.28.03.27.03.28.02.28v.55l-.01.27-.03.28-.03.27-.04.28-.05.27-.05.27-.07.27-.08.26-.09.27-.09.26-.1.26-.12.25-.12.26-.13.24-.14.25-.15.24-.16.23-.17.24-.17.22-.19.22-.19.22-.21.21-34.56 34.56-.22.21-.22.2-.23.19-.23.18-.24.17-.24.16-.25.15-.25.15-.25.13-.26.12-.26.12-.27.1-.27.1-.27.08-.28.08-.27.06-.28.06-.28.05-.28.03-.28.03-.29.02h-.56l-.29-.01-.28-.02-.28-.04-.28-.04-.28-.05-.28-.06-.28-.07-.28-.09-.27-.09-.27-.1-.27-.11-.27-.13-.26-.13-.26-.14-.25-.15-.25-.17-.25-.17-15.35-11.25-.95-.68-.96-.66-.98-.62-.99-.6-1-.57-1.01-.54-1.02-.51-1.03-.49-1.04-.46-1.05-.43-1.05-.4-1.07-.37-1.07-.35-1.08-.32-1.09-.29-1.09-.26-1.09-.23-1.1-.21-1.11-.17-1.11-.15-1.11-.12-1.12-.09-1.12-.06-1.12-.04h-1.12l-1.13.02-1.12.05-1.12.09-1.13.11-1.12.14-1.12.16-1.12.2-1.11.23-1.12.25-1.11.29-1.1.31-1.11.34-1.09.38-1.09.4-1.09.43-1.07.46-1.06.49-1.04.51-1.02.53-1.01.56-.98.58-.97.61-.95.63-.93.65-.92.67-.89.7-.87.71-.85.74-.83.76-.81.77-.79.8-.77.82-.75.83-.73.86-.7.87-.68.89-.65.91-.64.92-.61.94-.59.96-.56.97-.54.99-.51 1-.49 1.02-.46 1.03-.44 1.05-.41 1.06-.38 1.07-.36 1.09-.33 1.1-.31 1.11-.28 1.12-.24 1.13-.23 1.14-.19 1.16-2.89 18.81-.05.3-.06.29-.07.29-.08.28-.1.28-.1.27-.1.27-.12.27-.13.25-.14.26-.14.24-.16.25-.16.23-.17.23-.17.22-.19.22-.19.21-.2.2-.2.2-.21.19-.22.18-.23.17-.23.17-.23.15-.24.15-.25.14-.25.14-.26.12-.26.11-.27.11-.27.1-.28.08-.28.08-.28.07-.28.06-.29.04-.3.04-.29.03-.3.01-.3.01h-48.89l-.29-.01-.29-.01-.29-.03-.28-.03-.28-.05-.28-.05-.28-.07-.27-.07-.27-.08-.26-.09-.26-.1-.26-.11-.25-.12-.25-.13-.24-.13-.24-.14-.23-.15-.23-.16-.22-.16-.22-.17-.21-.18-.2-.19-.2-.19-.19-.2-.19-.21-.17-.21-.17-.22-.17-.23-.15-.23-.15-.24-.14-.24-.13-.25-.13-.25-.11-.26-.11-.26-.09-.27-.09-.27-.08-.28-.07-.28-.06-.29-4.91-25.49-.23-1.12-.25-1.11-.29-1.09-.31-1.09-.34-1.08-.36-1.06-.39-1.05-.41-1.04-.44-1.03-.46-1.01-.49-1-.51-.98-.54-.97-.56-.95-.58-.94-.61-.92-.62-.91-.65-.89-.67-.87-.7-.86-.71-.84-.74-.82-.75-.8-.78-.78-.8-.77-.81-.74-.84-.72-.85-.71-.88-.68-.89-.66-.91-.64-.93-.62-.94-.6-.97-.57-.98-.55-.99-.53-1.01-.51-1.03-.48-1.05-.45-1.06-.43-1.07-.41-1.07-.38-1.08-.35-1.09-.32-1.08-.29-1.1-.26-1.09-.23-1.1-.21-1.1-.18-1.1-.15-1.11-.12-1.1-.09-1.11-.07-1.1-.03-1.11-.01-1.1.01-1.1.05-1.1.07-1.1.11-1.09.12-1.09.16-1.09.18-1.08.21-1.08.24-1.07.27-1.06.29-1.06.32-1.05.35-1.05.37-1.03.4-1.03.43-1.02.45-1.01.48-1 .51-.99.53-.98.56-.96.59-.96.61-.94.64-.93.66-21.83 16.01-.25.17-.25.16-.25.16-.26.14-.26.13-.27.13-.27.11-.27.1-.27.09-.28.08-.27.08-.28.06-.28.05-.28.04-.29.03-.28.03-.28.01h-.29l-.28-.01-.28-.01-.28-.03-.29-.04-.27-.04-.28-.06-.28-.07-.27-.07-.27-.09-.27-.09-.27-.11-.26-.11-.26-.12-.26-.14-.25-.14-.25-.15-.24-.16-.24-.17-.23-.18-.23-.19-.22-.2-.22-.21-34.56-34.56-.2-.21-.2-.22-.18-.22-.18-.23-.17-.23-.16-.23-.15-.24-.14-.25-.13-.25-.12-.25-.11-.25-.11-.26-.09-.26-.09-.27-.08-.27-.06-.26-.06-.27-.05-.28-.04-.27-.03-.28-.02-.27-.02-.28v-.27l.01-.28.01-.28.03-.27.03-.28.05-.27.05-.28.06-.27.08-.27.08-.27.09-.26.1-.27.11-.26.12-.26.13-.25.14-.25.15-.25.16-.25 14.55-21.49.63-.96.61-.96.57-.98.55-.99.52-1 .5-1.01.47-1.02.44-1.02.42-1.04.38-1.04.36-1.05.34-1.06.3-1.06.28-1.07.26-1.08.22-1.08.2-1.08.17-1.09.14-1.1.11-1.09.09-1.1.06-1.1.03-1.1.01-1.1-.03-1.11-.05-1.1-.07-1.1-.11-1.11-.14-1.1-.16-1.1-.19-1.09-.22-1.1-.24-1.09-.28-1.08-.3-1.09-.33-1.08-.36-1.07-.39-1.07-.41-1.06-.45-1.05-.47-1.04-.49-1.03-.52-1.01-.54-.99-.57-.98-.58-.96-.61-.94-.63-.92-.66-.9-.67-.89-.7-.87-.71-.84-.74-.83-.75-.81-.78-.79-.79-.76-.81-.75-.83-.72-.85-.71-.86-.68-.88-.66-.9-.64-.91-.62-.93-.59-.95-.57-.96-.55-.97-.52-.99-.5-1-.47-1.02-.45-1.02-.43-1.05-.4-1.05-.37-1.06-.35-1.08-.32-1.09-.3-1.1-.27-1.1-.24-1.12-.22-1.13-.19-26.75-4.11-.3-.05-.29-.06-.29-.08-.28-.08-.28-.09-.27-.1-.27-.11-.27-.12-.25-.13-.26-.13-.24-.15-.25-.15-.23-.16-.23-.17-.22-.18-.22-.18-.21-.19-.2-.2-.2-.21-.19-.21-.18-.22-.17-.22-.17-.23-.15-.24-.15-.24-.14-.25-.14-.25-.12-.26-.11-.26-.11-.26-.1-.28-.08-.27-.08-.28-.07-.28-.06-.29-.04-.29-.04-.29-.03-.29-.01-.3-.01-.3v-48.89l.01-.29.01-.29.03-.29.03-.28.05-.28.05-.28.07-.28.07-.27.08-.27.09-.26.1-.26.11-.26.12-.25.12-.25.14-.24.14-.24.15-.23.16-.23.16-.22.17-.22.18-.21.19-.2.19-.2.2-.19.21-.18.21-.18.22-.17.23-.16.23-.16.23-.15.25-.14.24-.13.26-.12.25-.12.27-.1.26-.1.28-.09.27-.08.28-.06.29-.06 25.49-4.91 1.12-.23 1.11-.26 1.1-.28 1.08-.31 1.08-.34 1.06-.36 1.06-.39 1.03-.41 1.03-.44 1.01-.47 1-.48.98-.51.97-.54.96-.56.93-.58.93-.61.9-.62.89-.65.88-.68.85-.69.84-.71.82-.74.8-.75.79-.78.76-.8.74-.81.73-.84.7-.85.69-.88.66-.89.64-.91.62-.93.59-.94.58-.96.55-.98.53-1 .5-1.01.49-1.03.45-1.04.43-1.06.41-1.07.37-1.08.35-1.08.32-1.08.29-1.09.26-1.09.23-1.1.21-1.1.18-1.1.15-1.1.12-1.11.09-1.1.07-1.11.03-1.1.01-1.11-.01-1.1-.05-1.1-.07-1.1-.1-1.1-.13-1.09-.16-1.09-.18-1.09-.21-1.08-.24-1.08-.26-1.07-.3-1.06-.32-1.06-.34-1.05-.37-1.05-.4-1.03-.43-1.03-.45-1.02-.48-1.01-.51-1-.53-.99-.56-.98-.59-.97-.61-.95-.64-.94-.66-.93-16.01-21.83-.17-.25-.16-.25-.15-.25-.15-.26-.13-.26-.12-.27-.11-.27-.1-.27-.1-.27-.08-.28-.07-.28-.06-.28-.06-.28-.04-.28-.03-.28-.02-.28-.02-.29v-.28l.01-.29.02-.28.02-.28.04-.28.04-.28.06-.28.07-.28.07-.27.09-.27.09-.27.1-.27.12-.26.12-.26.13-.26.15-.25.15-.25.16-.24.17-.24.18-.23.19-.23.2-.22.21-.22 34.57-34.56.21-.2.22-.2.22-.18.22-.18.24-.17.23-.16.24-.14.25-.15.24-.13.26-.12.25-.11.26-.11.26-.09.27-.09.26-.07.27-.07.27-.06.27-.05.28-.04.27-.03.28-.02.27-.01.28-.01.27.01.28.02.28.02.27.04.28.04.27.05.27.07.27.07.27.08.27.09.26.1.26.11.26.12.26.13.25.14.25.15.24.16 27.76 18.81.93.61.95.59.95.57.97.54.98.51.99.49.99.46 1.01.44 1.01.41 1.03.38 1.03.36 1.03.33 1.05.31 1.05.28 1.05.25 1.06.23 1.07.2 1.06.18 1.08.15 1.07.12 1.08.1 1.08.07 1.08.04 1.09.02 1.08-.01 1.09-.04 1.08-.06 1.08-.09 1.09-.12 1.08-.14 1.08-.17 1.07-.2 1.08-.23 1.07-.25 1.06-.28 1.06-.31 1.06-.33 1.05-.36 1.05-.39 1.03-.42 1.03-.44 1.02-.46.99-.49.99-.51.96-.53.96-.56.93-.58.92-.6.9-.62.88-.64.87-.66.85-.69.83-.7.81-.72.79-.74.78-.76.75-.78.74-.8.71-.81.69-.83.68-.85.65-.86.63-.88.61-.9.59-.91.57-.92.54-.94.52-.96.5-.97.48-.98.45-.99.42-1.01.41-1.02.38-1.03.35-1.05.33-1.05.3-1.07.28-1.07.25-1.09.23-1.1 6.33-32.91.06-.29.07-.28.08-.28.09-.27.09-.27.11-.27.11-.25.13-.26.13-.25.14-.24.15-.24.15-.23.17-.22.17-.22.17-.22.19-.2.19-.2.2-.2.2-.18.21-.18.22-.18.22-.16.23-.16.23-.15.24-.14.24-.13.25-.13.25-.12.26-.11.26-.1.26-.09.27-.08.27-.07.28-.07.28-.05.28-.05.28-.03.29-.03.29-.01.29-.01h48.89l.3.01.3.01zM301.3 142.6l-.31 1.5-.34 1.48-.38 1.48-.42 1.45-.45 1.45-.48 1.42-.52 1.42-.55 1.39-.58 1.38-.62 1.36-.65 1.34-.68 1.33-.71 1.3-.75 1.29-.77 1.27-.81 1.24-.83 1.23-.87 1.2-.89 1.18-.92 1.16-.95 1.14-.98 1.11-1 1.09-1.03 1.06-1.06 1.04-1.09 1.02-1.11.98-1.13.96-1.16.94-1.19.9-1.21.88-1.23.85-1.25.82-1.28.79-1.3.77-1.32.73-1.35.7-1.36.66-1.39.64-1.4.6-1.42.57-1.43.53-1.44.5-1.45.45-1.45.42-1.46.39-1.46.34-1.47.31-1.47.27-1.47.23-1.48.2-1.48.16-1.49.12-1.48.09-1.48.05-1.48.02-1.49-.03-1.48-.06-1.47-.09-1.48-.13-1.47-.17-1.47-.21-1.46-.24-1.46-.27-1.45-.31-1.44-.35-1.43-.39-1.43-.41-1.42-.46-1.41-.49-1.4-.53-1.38-.56-1.38-.59-1.37-.64-1.35-.66-1.33-.71-1.33-.73-1.31-.78-1.29-.8-1.28-.85-22.19-15.03-24.86 24.87 11.87 16.2.91 1.27.87 1.29.84 1.31.8 1.32.76 1.34.73 1.35.7 1.37.65 1.38.62 1.4.59 1.4.54 1.42.51 1.43.48 1.44.43 1.45.4 1.45.36 1.47.33 1.47.29 1.48.25 1.49.21 1.49.17 1.49.14 1.5.1 1.51.07 1.5.02 1.51-.01 1.51-.05 1.51-.09 1.52-.13 1.51-.17 1.51-.2 1.51-.24 1.5-.28 1.51-.32 1.49-.36 1.5-.4 1.49-.43 1.48-.48 1.48-.51 1.47-.56 1.47-.59 1.45-.62 1.42-.66 1.41-.69 1.38-.72 1.37-.76 1.34-.78 1.31-.82 1.3-.85 1.27-.87 1.24-.91 1.22-.93 1.2-.97 1.16-.99 1.15-1.01 1.11-1.05 1.09-1.07 1.06-1.1 1.04-1.12 1-1.14.98-1.18.95-1.19.92-1.22.89-1.24.86-1.26.82-1.28.8-1.31.76-1.32.74-1.35.7-1.36.66-1.39.64-1.4.6-1.42.56-1.44.54-1.45.49-1.47.46-1.49.43-1.5.39-1.52.35-1.53.31-18.88 3.63v35.16l19.83 3.05 1.54.26 1.53.3 1.52.33 1.5.37 1.49.4 1.47.44 1.46.48 1.44.51 1.42.55 1.41.58 1.39.62 1.37.65 1.35.68 1.33.72 1.31.74 1.3.78 1.27.81 1.25.85 1.22.87 1.21.9 1.18.94 1.16.96 1.13.99 1.11 1.02 1.09 1.05 1.06 1.08 1.03 1.1 1.01 1.14.97 1.16.95 1.18.93 1.21.89 1.24.87 1.26.83 1.28.8 1.32.78 1.33.74 1.36.71 1.38.67 1.4.65 1.43.6 1.44.57 1.45.53 1.46.49 1.47.46 1.47.41 1.48.38 1.49.33 1.49.3 1.49.26 1.5.23 1.51.18 1.5.14 1.51.11 1.51.07 1.51.03 1.51v1.5l-.05 1.51-.08 1.51-.12 1.5-.16 1.5-.19 1.49-.23 1.49-.27 1.48-.31 1.48-.34 1.47-.39 1.46-.42 1.46-.45 1.45-.49 1.43-.53 1.43-.57 1.41-.61 1.41-.64 1.39-.67 1.38-.72 1.37-.75 1.35-.79 1.34-.82 1.32-.86 1.3-10.79 15.93 24.87 24.86 16.19-11.87 1.27-.91 1.29-.87 1.31-.83 1.32-.81 1.34-.76 1.35-.73 1.37-.69 1.38-.66 1.4-.62 1.4-.58 1.42-.54 1.43-.51 1.44-.48 1.45-.43 1.45-.4 1.47-.37 1.47-.32 1.48-.29 1.49-.25 1.49-.21 1.49-.18 1.5-.14 1.51-.1 1.5-.06 1.51-.03 1.51.02 1.51.05 1.51.09 1.52.12 1.5.17 1.51.2 1.51.24 1.5.29 1.5.31 1.49.36 1.49.4 1.48.44 1.48.47 1.47.51 1.46.56 1.45.59 1.43.62 1.41.66 1.38.69 1.36.72 1.34.76 1.32.78 1.29.82 1.27.85 1.25.87 1.22.91 1.19.93 1.17.97 1.14.99 1.12 1.02 1.09 1.04 1.06 1.07 1.04 1.1 1 1.12.98 1.15.95 1.17.92 1.19.89 1.22.86 1.24.82 1.26.8 1.28.77 1.31.73 1.32.7 1.35.67 1.37.63 1.38.6 1.4.57 1.42.53 1.44.5 1.46.46 1.47.42 1.49.39 1.5.35 1.52.32 1.53 3.63 18.87h35.17l1.82-11.89.27-1.58.3-1.56.34-1.55.38-1.53.41-1.52.45-1.5.49-1.49.53-1.46.56-1.45.6-1.43.63-1.41.67-1.39.7-1.38.74-1.35.77-1.33.8-1.31.84-1.28.86-1.27.9-1.24.93-1.21.96-1.2.99-1.16 1.03-1.15 1.05-1.11 1.08-1.09 1.11-1.07 1.14-1.03 1.16-1.01 1.19-.98 1.22-.95 1.25-.92 1.28-.89 1.29-.86 1.33-.83 1.35-.8 1.37-.76 1.4-.74 1.43-.69 1.44-.67 1.47-.63 1.49-.59 1.49-.55 1.5-.51 1.51-.47 1.51-.44 1.52-.39 1.52-.35 1.53-.31 1.53-.27 1.53-.23 1.54-.19 1.54-.15 1.53-.11 1.54-.07 1.54-.03h1.53l1.53.05 1.54.08 1.52.13 1.52.16 1.52.2 1.52.25 1.5.28 1.5.32 1.49.35 1.49.4 1.48.43 1.46.48 1.46.51 1.44.55 1.44.59 1.42.62 1.41.67 1.39.7 1.39.74 1.36.78 1.36.82 1.33.85 1.32.89 1.3.93 9.71 7.12 24.87-24.87-10.78-15.92-.86-1.3-.82-1.33-.79-1.33-.75-1.36-.72-1.36-.68-1.38-.64-1.4-.6-1.4-.57-1.42-.53-1.42-.49-1.44-.46-1.45-.42-1.45-.38-1.46-.34-1.48-.31-1.47-.27-1.49-.23-1.49-.2-1.49-.16-1.5-.12-1.5-.08-1.5-.04-1.51-.01-1.51.03-1.51.07-1.5.11-1.51.15-1.51.18-1.51.22-1.5.26-1.5.3-1.49.34-1.5.37-1.48.42-1.48.45-1.48.49-1.46.53-1.46.57-1.45.6-1.44.65-1.43.67-1.4.71-1.39.75-1.35.77-1.34.8-1.31.84-1.29.86-1.26.89-1.24.93-1.21.95-1.18.98-1.16 1-1.13 1.03-1.11 1.06-1.08 1.09-1.05 1.11-1.02 1.13-.99 1.16-.96 1.18-.94 1.21-.9 1.23-.87 1.25-.85 1.27-.81 1.29-.78 1.31-.74 1.33-.72 1.35-.68 1.38-.65 1.38-.62 1.41-.58 1.42-.55 1.45-.51 1.45-.48 1.47-.44 1.49-.4 1.5-.37 1.52-.33 1.53-.3 1.54-.26 19.84-3.05v-35.17l-18.86-3.62-1.53-.31-1.52-.35-1.5-.39-1.49-.43-1.47-.46-1.46-.49-1.44-.54-1.42-.56-1.4-.6-1.39-.64-1.36-.66-1.35-.7-1.32-.74-1.31-.76-1.28-.8-1.26-.82-1.24-.86-1.22-.89-1.19-.92-1.18-.95-1.14-.98-1.12-1-1.1-1.04-1.07-1.06-1.04-1.09-1.02-1.11-.99-1.15-.97-1.16-.93-1.2-.91-1.22-.87-1.24-.85-1.27-.82-1.3-.78-1.31-.75-1.34-.73-1.37-.69-1.38-.65-1.41-.63-1.42-.59-1.45-.55-1.47-.52-1.47-.47-1.48-.44-1.48-.39-1.49-.36-1.5-.32-1.5-.28-1.5-.25-1.5-.2-1.51-.17-1.51-.13-1.52-.09-1.51-.05-1.51-.01-1.51.02-1.51.07-1.51.1-1.5.13-1.5.18-1.5.21-1.49.25-1.48.29-1.48.33-1.48.36-1.46.4-1.46.43-1.45.48-1.43.51-1.43.54-1.42.59-1.41.62-1.39.65-1.38.69-1.37.73-1.35.77-1.34.8-1.32.84-1.31.87-1.29.91-1.27 11.87-16.19-24.87-24.86-15.92 10.78-1.3.86-1.33.82-1.33.79-1.36.75-1.36.71-1.38.68-1.4.64-1.4.6-1.42.57-1.42.53-1.44.49-1.45.46-1.45.42-1.46.38-1.48.34-1.47.31-1.49.27-1.49.23-1.49.2-1.5.16-1.5.12-1.5.08-1.51.04-1.51.01-1.51-.03-1.5-.07-1.51-.11-1.51-.14-1.51-.19-1.5-.22-1.5-.26-1.49-.3-1.5-.34-1.48-.37-1.48-.41-1.48-.46-1.46-.49-1.46-.53-1.45-.57-1.44-.6-1.43-.65-1.4-.67-1.38-.71-1.36-.75-1.34-.77-1.31-.8-1.28-.84-1.27-.86-1.23-.89-1.21-.93-1.19-.95-1.16-.98-1.13-1-1.1-1.03-1.08-1.06-1.05-1.09-1.02-1.11-1-1.13-.96-1.16-.93-1.18-.91-1.21-.87-1.23-.84-1.25-.81-1.27-.78-1.29-.75-1.31-.72-1.33-.68-1.35-.65-1.38-.62-1.38-.58-1.41-.55-1.42-.51-1.45-.48-1.45-.44-1.47-.4-1.49-.37-1.5-.33-1.52-.3-1.53-.26-1.54-3.05-19.84h-35.17l-5.06 26.3z" id="b"/><path d="M410.04 325.87c0 45.33-37.26 82.13-83.15 82.13-45.89 0-83.15-36.8-83.15-82.13s37.26-82.13 83.15-82.13c45.89 0 83.15 36.8 83.15 82.13z" id="a"/><clipPath id="c"><use xlink:href="#a"/></clipPath></defs><use xlink:href="#b"/><g clip-path="url(#c)"><use xlink:href="#a" fill-opacity="0" stroke="#000" stroke-width="38"/></g></svg>