<svg xmlns="http://www.w3.org/2000/svg" xmlns:xlink="http://www.w3.org/1999/xlink" viewBox="0 0 640 640" width="640" height="640"><defs><path d="M441.72 439.22c-56.91 6.49-97.05 4.45-120.4-6.12-35.04-15.85-54.68-49.65-59.1-67.86-4.43-18.2 10.38-94.4-22.22-131.89-21.73-25-75.07-35.09-160-30.28" id="a"/><path d="M487.36 397.53l-72.65-41.7v166.78l72.65-41.69 72.64-41.7-72.64-41.69z" id="b"/><path d="M441.72 200.78c-56.91-6.49-97.05-4.45-120.4 6.12-35.04 15.85-54.68 49.65-59.1 67.86-4.43 18.2 10.38 94.4-22.22 131.89-21.73 25-75.07 35.09-160 30.28" id="c"/><path d="M487.36 242.47l-72.65 41.7V117.39l72.65 41.69 72.64 41.7-72.64 41.69z" id="d"/></defs><use xlink:href="#a" fill-opacity="0" stroke-width="42"/><use xlink:href="#b"/><use xlink:href="#c" fill-opacity="0" stroke-width="42"/><use xlink:href="#d"/></svg>