<svg xmlns="http://www.w3.org/2000/svg" xmlns:xlink="http://www.w3.org/1999/xlink" width="640" height="640"><defs><path d="M40 206.03h81.41L284.22 92.06v455.88L122.25 434.56l-.04-.03-.04-.03-.04-.03-.04-.03-.03-.03-.04-.03-.03-.04-.03-.03-.04-.04-.03-.03-.03-.04-.03-.03-.03-.04-.02-.04-.03-.04-.03-.04-.02-.03-.03-.04-.02-.05-.02-.04-.02-.04-.02-.04-.02-.04-.02-.05-.02-.04-.01-.04-.02-.05-.01-.04-.01-.05-.02-.04-.01-.05-.01-.05-.01-.04v-.05l-.01-.05v-.04l-.01-.05v-.14 1.02H40V206.03z" id="a"/><path d="M362.22 440c58.6-29.23 87.9-70.37 87.9-123.4S420.08 224.71 360 200l2.22 240z" id="b"/><path d="M401.94 32.83l11.33 6.93 11.02 6.96 10.73 7 10.41 7.03 10.12 7.06 9.82 7.1 9.51 7.14 9.21 7.16 8.91 7.2 8.61 7.24 8.31 7.27 8 7.3 7.7 7.34 7.4 7.37 7.1 7.4 6.79 7.44 6.5 7.47 6.19 7.51 5.89 7.54 5.58 7.57 5.29 7.61 4.98 7.64 4.68 7.68 4.38 7.71 4.08 7.74 3.77 7.78 3.48 7.81 3.17 7.85 2.87 7.88 2.57 7.91 2.26 7.95 1.96 7.98 1.66 8.01 1.36 8.05 1.06 8.09.76 8.11.45 8.15.15 8.19-.15 8.19-.45 8.15-.76 8.11-1.06 8.09-1.36 8.05-1.66 8.01-1.96 7.98-2.26 7.95-2.57 7.91-2.87 7.88-3.17 7.85-3.48 7.81-3.77 7.78-4.08 7.74-4.38 7.71-4.68 7.68-4.98 7.64-5.29 7.61-5.58 7.57-5.89 7.54-6.19 7.51-6.5 7.47-6.79 7.44-7.1 7.4-7.4 7.37-7.7 7.34-8 7.3-8.31 7.27-8.61 7.24-8.91 7.2-9.21 7.16-9.51 7.14-9.82 7.1-10.12 7.06-10.41 7.03-10.73 7-11.02 6.96-11.33 6.93-11.62 6.9L380 620V20l10.32 5.93 11.62 6.9zm-13.46 504.31l8.27-4.71 8.05-4.75 7.84-4.8 7.62-4.84 7.41-4.88 7.19-4.94 6.98-4.97 6.76-5.03 6.55-5.06 6.33-5.12 6.12-5.16 5.91-5.2 5.69-5.25 5.47-5.3 5.26-5.34 5.05-5.38 4.83-5.44 4.62-5.47 4.4-5.52 4.18-5.57 3.98-5.61 3.75-5.66 3.55-5.71 3.32-5.75 3.12-5.79 2.9-5.84 2.68-5.89 2.47-5.93 2.25-5.97 2.04-6.02 1.83-6.07 1.61-6.11 1.39-6.16 1.19-6.2.96-6.25.75-6.3.54-6.34.32-6.38.11-6.43-.11-6.43-.32-6.38-.54-6.34-.75-6.29-.96-6.24-1.19-6.19-1.39-6.15-1.61-6.1-1.83-6.05-2.04-6.01-2.25-5.96-2.47-5.91-2.68-5.87-2.9-5.81-3.12-5.78-3.32-5.72-3.55-5.68-3.75-5.63-3.98-5.58-4.18-5.54-4.4-5.49-4.62-5.44-4.83-5.4-5.05-5.34-5.26-5.31-5.47-5.25-5.69-5.21-5.91-5.16-6.12-5.11-6.33-5.07-6.55-5.02-6.76-4.97-6.98-4.93-7.19-4.88-7.41-4.83-7.62-4.78-7.84-4.74-8.05-4.69-8.27-4.65-8.48-4.59V541.8l8.48-4.66z" id="c"/></defs><use xlink:href="#a"/><use xlink:href="#b"/><use xlink:href="#c"/></svg>