<svg xmlns="http://www.w3.org/2000/svg" xmlns:xlink="http://www.w3.org/1999/xlink" viewBox="0 0 640 640" width="640" height="640"><defs><path d="M160.49 213.25l123.92-86.75v347l-123.28-86.3-.03-.02-.03-.03-.03-.02-.03-.02-.03-.02-.03-.03-.02-.03-.02-.02-.03-.03-.03-.02-.02-.03-.02-.03-.02-.03-.02-.03-.02-.03-.02-.03-.02-.02-.02-.03-.02-.04-.01-.03-.02-.03-.01-.03-.02-.03-.01-.04-.02-.03-.01-.03-.01-.04-.01-.03-.01-.04-.01-.03-.01-.04-.01-.03-.01-.03v-.11l-.01-.04v-.11.78H98.52v-173.5h61.97z" id="a"/><path d="M410.69 297.41c0-40.36-22.86-69.94-68.59-88.75.11 12.18.67 73.07 1.69 182.68 44.6-35.71 66.9-67.02 66.9-93.93z" id="b"/><path d="M374.02 81.42l8.62 5.27 8.39 5.3 8.17 5.33 7.92 5.35 7.71 5.37 7.47 5.41 7.24 5.43 7.01 5.45 6.78 5.48 6.56 5.51 6.32 5.53 6.09 5.56 5.86 5.59 5.63 5.61 5.41 5.63 5.17 5.66 4.94 5.69 4.72 5.72 4.48 5.74 4.25 5.76 4.02 5.79 3.79 5.82 3.57 5.84 3.33 5.87 3.1 5.89 2.87 5.92 2.65 5.95 2.42 5.97 2.18 6 1.96 6.02 1.72 6.05 1.49 6.08 1.26 6.09 1.04 6.13.8 6.16.58 6.17.35 6.21.11 6.23-.11 6.23-.35 6.21-.58 6.17-.8 6.16-1.04 6.13-1.26 6.09-1.49 6.08-1.72 6.05-1.96 6.02-2.18 6-2.42 5.97-2.65 5.95-2.87 5.92-3.1 5.89-3.33 5.87-3.57 5.84-3.79 5.82-4.02 5.79-4.25 5.76-4.48 5.74-4.72 5.72-4.94 5.69-5.17 5.66-5.41 5.63-5.63 5.61-5.86 5.59-6.09 5.56-6.32 5.53-6.56 5.51-6.78 5.48-7.01 5.45-7.24 5.43-7.47 5.41-7.71 5.37-7.92 5.35-8.17 5.33-8.39 5.3-8.62 5.27-8.85 5.26-7.85 4.51v-59.52l6.45-3.55 6.3-3.58 6.13-3.62 5.96-3.65 5.8-3.69 5.64-3.71 5.48-3.76 5.31-3.79 5.15-3.82 4.98-3.86 4.82-3.89 4.66-3.93 4.5-3.96 4.33-4 4.16-4.03 4-4.06 3.85-4.1 3.68-4.14 3.51-4.16 3.35-4.21 3.18-4.23 3.03-4.27 2.86-4.31 2.7-4.35 2.53-4.38 2.37-4.4 2.21-4.45 2.04-4.48 1.88-4.52 1.71-4.54 1.55-4.58 1.4-4.62 1.22-4.65 1.06-4.69.91-4.72.73-4.76.57-4.79.41-4.83.24-4.86.09-4.89-.09-4.89-.24-4.86-.41-4.83-.57-4.78-.73-4.75-.91-4.72-1.06-4.68-1.22-4.64-1.4-4.6-1.55-4.58-1.71-4.54-1.88-4.49-2.04-4.47-2.21-4.42-2.37-4.4-2.53-4.36-2.7-4.32-2.86-4.29-3.03-4.24-3.18-4.22-3.35-4.18-3.51-4.14-3.68-4.11-3.85-4.07-4-4.04-4.16-3.99-4.33-3.97-4.5-3.93-4.66-3.89-4.82-3.86-4.98-3.82-5.15-3.78-5.31-3.75-5.48-3.72-5.64-3.67-5.8-3.64-5.96-3.61-6.13-3.57-6.3-3.54-6.45-3.49v-60.5l7.85 4.51 8.85 5.26z" id="c"/></defs><use xlink:href="#a"/><use xlink:href="#a" fill-opacity="0" stroke-opacity="0"/><use xlink:href="#b"/><use xlink:href="#b" fill-opacity="0" stroke-opacity="0"/><use xlink:href="#c"/><use xlink:href="#c" fill-opacity="0" stroke-opacity="0"/></svg>