<svg xmlns="http://www.w3.org/2000/svg" xmlns:xlink="http://www.w3.org/1999/xlink" width="640" height="640"><defs><path d="M475.28 340c0 89.43-69.58 162.03-155.28 162.03S164.72 429.43 164.72 340 234.3 177.97 320 177.97 475.28 250.57 475.28 340z" id="a"/><path d="M352.56 340c0 18.91-14.59 34.27-32.56 34.27-17.97 0-32.56-15.36-32.56-34.27 0-18.91 14.59-34.27 32.56-34.27 17.97 0 32.56 15.36 32.56 34.27z" id="b"/><path d="M411.5 289.79c-4.91-13.98-14.72-26.47-29.44-37.46-22.07-16.5-37.79-15.96-52.51-16.58-14.73-.62-27.7.97-50.38 10.85-15.12 6.59-27.49 15.85-37.11 27.78" id="e"/><path d="M230.25 323.5c-3.59 5.68-5.29 14.25-5.1 25.71.3 17.19 2.68 36.72 22.07 59.97 19.38 23.25 37.09 29.1 57.93 33.43 20.85 4.34 45.33 2.46 60-6.73 9.79-6.13 16.45-14.08 20-23.85" id="f"/><clipPath id="c"><use xlink:href="#a"/></clipPath><clipPath id="d"><use xlink:href="#b"/></clipPath></defs><g clip-path="url(#c)"><use xlink:href="#a" fill-opacity="0" stroke-width="20"/></g><g clip-path="url(#d)"><use xlink:href="#b" fill-opacity="0" stroke-width="16"/></g><use xlink:href="#e" fill-opacity="0" stroke-width="16"/><use xlink:href="#f" fill-opacity="0" stroke-width="16"/></svg>