<svg xmlns="http://www.w3.org/2000/svg" xmlns:xlink="http://www.w3.org/1999/xlink" width="640" height="640"><defs><path d="M420 406.98c15.61-.18 22.48-9.9 23.04-1.83.56 8.08 2.25 81.72-1.41 87.74-3.65 6.02-38.93 4.81-43.1 0-4.17-4.82-5.45-80.69-4.51-87.74.93-7.04 10.37 2 25.98 1.83z" id="a"/><path d="M458.19 369.98c0 20.58-17.56 37.29-39.19 37.29-21.62 0-39.18-16.71-39.18-37.29 0-20.59 17.56-37.3 39.18-37.3 21.63 0 39.19 16.71 39.19 37.3z" id="b"/><path d="M354.05 388.9c-4.35-6.17-10.38-10.39-18.08-12.64-11.56-3.37-26.49 2.24-28.16-.86-1.67-3.09-3.14-20.9.86-23.9 3.99-3 27.11-5.15 39.86-21.09 12.76-15.93 15.84-32.56 19.41-55.03 3.56-22.47 6.78-47.26-13.41-71.96-20.18-24.7-50.4-23.6-77.64-23.42-27.24.18-40.33.86-60.17 20-19.84 19.14-24.18 33.17-25.37 53.15-1.18 19.97 4.8 53.58 20.62 72.11 15.83 18.52 38.62 12.14 46.8 22.62 8.19 10.47 2.07 25.44-5.82 27.52-7.88 2.09-47.66-2.07-58.7 17.91-11.03 19.99-19.52 86.88-14.3 95.01 3.48 5.43 50.95 6.6 142.41 3.51" id="c"/><path d="M365.64 280.25c-23.45-5.26-45.33-12.01-65.64-20.25-30.46-12.36-46.3-30.08-64.45-33.29-18.15-3.22-3.73 14.37-15.55 26.35-7.88 7.99-17.08 12.42-27.6 13.31" id="d"/><path d="M322.1 185.28c-4.67-24.65-18.7-37.21-42.1-37.68-23.4-.47-38.29 12.53-44.68 38.99" id="e"/></defs><use xlink:href="#a" fill-opacity="0" stroke-width="17"/><use xlink:href="#b" fill-opacity="0" stroke-width="17"/><use xlink:href="#c" fill-opacity="0" stroke-width="17"/><use xlink:href="#d" fill-opacity="0" stroke-width="17"/><use xlink:href="#e" fill-opacity="0" stroke-width="17"/></svg>