<svg xmlns="http://www.w3.org/2000/svg" xmlns:xlink="http://www.w3.org/1999/xlink" viewBox="0 0 640 640" width="640" height="640"><defs><path d="M144.88 226.66c-31.81 26.85-49.27 56.06-52.39 87.63-4.67 47.35 14.28 96.4 42.48 121.38 28.2 24.97 75.4 38.73 132.43 16.88 38.02-14.56 70.87-34.39 98.54-59.48" id="a"/><path d="M405.49 415.83l-37.73 67.47-41.68-66.67-41.68-66.67 79.41-.81 79.42-.8-37.74 67.48z" id="b"/><path d="M495.12 413.34c31.81-26.85 49.27-56.06 52.39-87.63 4.67-47.35-14.28-96.4-42.48-121.38-28.2-24.97-75.4-38.73-132.43-16.88-38.02 14.56-70.87 34.39-98.54 59.48" id="c"/><path d="M234.51 224.17l37.73-67.47 41.68 66.67 41.68 66.67-79.41.81-79.42.8 37.74-67.48z" id="d"/></defs><use xlink:href="#a" fill-opacity="0" stroke-width="42"/><use xlink:href="#b"/><use xlink:href="#c" fill-opacity="0" stroke-width="42"/><use xlink:href="#d"/></svg>