<svg xmlns="http://www.w3.org/2000/svg" xmlns:xlink="http://www.w3.org/1999/xlink" width="640" height="640"><defs><path d="M427.66 244.93L247.4 283.34" id="a"/><path d="M427.66 405.5c0 16.87-22.14 30.56-49.42 30.56-27.27 0-49.41-13.69-49.41-30.56 0-16.86 22.14-30.56 49.41-30.56 27.28 0 49.42 13.7 49.42 30.56z" id="b"/><path d="M252.19 447.24c0 16.86-22.28 30.55-49.71 30.55s-49.71-13.69-49.71-30.55c0-16.87 22.28-30.56 49.71-30.56s49.71 13.69 49.71 30.56z" id="c"/><path d="M427.43 402.52c4.39-130.31 3.87-201.12-1.55-212.42-8.14-16.96-170.27 28.86-176.33 33.44-4.04 3.06-3.22 76.39 2.46 220.01" id="d"/></defs><use xlink:href="#a" fill-opacity="0" stroke-width="17"/><use xlink:href="#b" fill-opacity="0" stroke-width="17"/><use xlink:href="#c" fill-opacity="0" stroke-width="17"/><use xlink:href="#d" fill-opacity="0" stroke-width="17"/></svg>