<svg xmlns="http://www.w3.org/2000/svg" xmlns:xlink="http://www.w3.org/1999/xlink" width="640" height="640"><defs><path d="M160.49 213.25l123.92-86.75v347l-123.28-86.3-.03-.02-.03-.03-.03-.02-.03-.02-.03-.02-.03-.03-.02-.03-.02-.02-.03-.03-.03-.02-.02-.03-.02-.03-.02-.03-.02-.03-.02-.03-.02-.03-.02-.02-.02-.03-.02-.04-.01-.03-.02-.03-.01-.03-.02-.03-.01-.04-.02-.03-.01-.03-.01-.04-.01-.03-.01-.04-.01-.03-.01-.04-.01-.03-.01-.03v-.11l-.01-.04v-.11.78H98.52v-173.5h61.97z" id="a"/><path d="M353.93 182.28l48.22-24.29L530 411.79l-48.22 24.29-127.85-253.8z" id="b"/><path d="M350 417.72l48.22 24.29 127.85-253.8-48.22-24.29L350 417.72z" id="c"/></defs><use xlink:href="#a"/><use xlink:href="#a" fill-opacity="0" stroke-opacity="0"/><use xlink:href="#b"/><use xlink:href="#c"/></svg>