<svg xmlns="http://www.w3.org/2000/svg" xmlns:xlink="http://www.w3.org/1999/xlink" viewBox="0 0 640 640" width="640" height="640"><defs><path d="M329.31 341.57c0 16.48-12.71 29.85-28.36 29.85-15.66 0-28.37-13.37-28.37-29.85 0-16.47 12.71-29.85 28.37-29.85 15.65 0 28.36 13.38 28.36 29.85z" id="a"/><clipPath id="b"><use xlink:href="#a"/></clipPath><path d="M360.34 480c20.21-10.63 37.29-23.31 51.22-38.04 20.91-22.1 25.83-34.29 32.92-51.53 7.09-17.23 7.44-25.85 7.18-50.79-.18-16.64-3.09-32.97-8.74-49-6.85-19.83-17.16-37.32-30.92-52.46-13.77-15.15-30.99-27.56-51.66-37.24-16.74-6.68-34.02-10.36-51.86-11.04-17.83-.68-36.21 1.64-55.14 6.96-18.4 4.29-35.14 13.24-50.24 26.83-22.64 20.39-26.08 24.68-38.58 51.26-12.49 26.59-12.96 32.86-14.33 60.19-.81 16.15.99 31.75 5.4 46.81l3.95 11.36c9.29 22.98 19.29 39.67 30 50.07 11.82 11.48 29.4 23.68 52.73 36.62" id="c"/><path d="M337.81 426.39c12.53-6.58 23.11-14.44 31.75-23.57 12.95-13.69 16-21.25 20.39-31.93 4.4-10.68 4.61-16.02 4.45-31.48-.11-10.31-1.91-20.43-5.41-30.37-4.25-12.29-10.64-23.13-19.17-32.51-8.53-9.39-19.2-17.08-32.01-23.08-10.37-4.14-21.09-6.42-32.14-6.84-11.05-.42-22.44 1.02-34.18 4.31-11.4 2.66-21.77 8.2-31.13 16.63-14.03 12.64-16.16 15.29-23.91 31.77-7.74 16.47-8.03 20.36-8.88 37.3-.5 10.01.61 19.68 3.35 29.01l2.45 7.04c5.75 14.24 11.95 24.59 18.59 31.03 7.32 7.11 18.22 14.68 32.67 22.69" id="d"/></defs><g clip-path="url(#b)"><use xlink:href="#a" fill-opacity="0" stroke-width="16"/></g><use xlink:href="#c" fill-opacity="0" stroke-width="18"/><use xlink:href="#d" fill-opacity="0" stroke-width="18"/></svg>