<svg xmlns="http://www.w3.org/2000/svg" xmlns:xlink="http://www.w3.org/1999/xlink" width="640" height="640"><defs><path d="M144.88 226.66c-31.12 26.16-48.24 55.03-51.36 86.6-4.67 47.35 3.97 82.99 29.08 109 25.11 26.01 65.99 46.26 109.56 37.74 43.58-8.52 71.74-22.61 110.93-48.66" id="a"/><path d="M404.94 415.54l-38.21 67.21-41.2-66.97-41.21-66.96 79.42-.25 79.41-.24-38.21 67.21z" id="b"/><path d="M495.88 412.99c21.76-22.62 45.49-38.49 52.5-89.27 7-50.78-10.2-117.92-48.38-158.57-38.18-40.64-128.77-54.57-212.09-21.95-55.55 21.75-104.01 50.15-145.37 85.2" id="c"/></defs><use xlink:href="#a" fill-opacity="0" stroke-width="42"/><use xlink:href="#b"/><use xlink:href="#c" fill-opacity="0" stroke-width="42"/></svg>