<svg xmlns="http://www.w3.org/2000/svg" xmlns:xlink="http://www.w3.org/1999/xlink" width="640" height="640"><defs><path d="M472.78 417.59l-10.13 110.66H412l-12.57-109.84c12.36 4.67 20.09 7.59 23.18 8.76 8.48 3.2 17.85 3.14 26.28-.18 3.19-1.25 11.15-4.39 23.89-9.4z" id="a"/><path d="M482.1 383.83c0 24.18-20.63 43.82-46.04 43.82s-46.05-19.64-46.05-43.82c0-24.19 20.64-43.83 46.05-43.83 25.41 0 46.04 19.64 46.04 43.83z" id="b"/><path d="M362.41 395.86c-.41-.4-.67-.65-.77-.76a56.77 56.77 0 0 0-46.11-15.93c-.99.11-3.47.39-7.45.83l1.01-28.09c1.07-.47 1.75-.77 2.02-.89 30.7-13.6 53.79-40.13 63.01-72.42.92-3.23-2.73 9.55.23-.8 2.91-10.17 4.38-20.69 4.38-31.27v-10.6c0-45.14-34.56-82.77-79.54-86.59-6.94-.59-.51-.05-20.53-1.75-9.42-.8-18.9-.49-28.25.91-13.51 2.04-.26.04-3.85.58-37.85 5.7-67.56 35.43-73.23 73.29-.42 2.79 1.9-12.68-.01.08-1.38 9.24-1.78 18.6-1.17 27.92 1.03 15.84.2 3.1.48 7.38 2.78 42.76 32.92 78.79 74.51 89.08.67.17-16.99-4.2-3.77-.93 3.95.98 6.42 4.91 5.58 8.9-.71 3.36-2.49 11.76-5.33 25.2-16.49 1.05-26.79 1.7-30.92 1.96-29.71 1.89-53 26.26-53.53 56.03-.26 14.94-.83 46.68-1.27 71.52a3.19 3.19 0 0 0 3.12 3.25l164.15 4.05" id="c"/><path d="M376.03 268.19c-8.8-1.41-14.3-2.29-16.5-2.64-43.5-6.95-84.81-23.8-120.77-49.24-2.08-1.48-7.28-5.15-15.59-11.04-.75 1.73-1.22 2.81-1.41 3.24a77.153 77.153 0 0 1-46.08 42.29c-.43.14-1.5.5-3.21 1.08" id="d"/><path d="M324.87 156.59c-1.45-4.93-2.35-8.01-2.71-9.25-13.33-45.55-76.94-48.03-93.77-3.65-.73 1.92-2.56 6.74-5.48 14.45" id="e"/></defs><use xlink:href="#a" fill-opacity="0" stroke="#000" stroke-width="23"/><use xlink:href="#b" fill-opacity="0" stroke="#000" stroke-width="23"/><use xlink:href="#c" fill-opacity="0" stroke="#000" stroke-width="24"/><use xlink:href="#d" fill-opacity="0" stroke="#000" stroke-width="24"/><use xlink:href="#e" fill-opacity="0" stroke="#000" stroke-width="24"/></svg>