<?xml version="1.0" encoding="UTF-8" standalone="no"?>
<!DOCTYPE svg PUBLIC "-//W3C//DTD SVG 1.1//EN" "http://www.w3.org/Graphics/SVG/1.1/DTD/svg11.dtd">
<svg version="1.1" xmlns="http://www.w3.org/2000/svg" xmlns:xlink="http://www.w3.org/1999/xlink" preserveAspectRatio="xMidYMid meet" viewBox="0 0 640 640" width="640" height="640"><defs><path d="M342.51 56.84L352.73 57.88L362.84 59.33L372.81 61.16L382.65 63.38L392.34 65.98L401.87 68.95L411.23 72.27L420.43 75.95L429.44 79.98L438.26 84.34L446.89 89.03L455.31 94.04L463.52 99.36L471.51 104.98L479.26 110.9L486.78 117.11L494.06 123.59L501.08 130.35L507.83 137.37L514.32 144.64L520.52 152.16L526.44 159.92L532.07 167.9L537.39 176.11L542.4 184.53L547.08 193.16L551.45 201.98L555.47 211L559.15 220.19L562.48 229.56L565.44 239.09L568.04 248.77L570.26 258.61L572.1 268.58L573.54 278.69L574.58 288.92L575.21 299.26L575.42 309.71L575.21 320.17L574.58 330.51L573.54 340.74L572.1 350.84L570.26 360.82L568.04 370.65L565.44 380.34L562.48 389.87L559.15 399.24L555.47 408.43L551.45 417.44L547.08 426.27L542.4 434.89L537.39 443.32L532.07 451.53L526.44 459.51L520.52 467.27L514.32 474.79L507.83 482.06L501.08 489.08L494.06 495.84L486.78 502.32L479.26 508.53L471.51 514.45L463.52 520.07L455.31 525.39L446.89 530.4L438.26 535.09L429.44 539.45L420.43 543.47L411.23 547.15L401.87 550.48L392.34 553.45L382.65 556.05L372.81 558.27L362.84 560.1L352.73 561.54L342.51 562.58L332.16 563.21L321.71 563.43L311.26 563.21L300.91 562.58L290.68 561.54L280.58 560.1L270.6 558.27L260.77 556.05L251.08 553.45L241.55 550.48L232.19 547.15L222.99 543.47L213.98 539.45L205.16 535.09L196.53 530.4L188.11 525.39L179.9 520.07L171.91 514.45L164.15 508.53L156.64 502.32L149.36 495.84L142.34 489.08L135.59 482.06L129.1 474.79L122.9 467.27L116.98 459.51L111.35 451.53L106.03 443.32L101.02 434.89L96.33 426.27L91.97 417.44L87.95 408.43L84.27 399.24L80.94 389.87L77.97 380.34L75.38 370.65L73.16 360.82L71.32 350.84L69.88 340.74L68.84 330.51L68.21 320.17L68 309.71L68.21 299.26L68.84 288.92L69.88 278.69L71.32 268.58L73.16 258.61L75.38 248.77L77.97 239.09L80.94 229.56L84.27 220.19L87.95 211L91.97 201.98L96.33 193.16L101.02 184.53L106.03 176.11L111.35 167.9L116.98 159.92L122.9 152.16L129.1 144.64L135.59 137.37L142.34 130.35L149.36 123.59L156.64 117.11L164.15 110.9L171.91 104.98L179.9 99.36L188.11 94.04L196.53 89.03L205.16 84.34L213.98 79.98L222.99 75.95L232.19 72.27L241.55 68.95L251.08 65.98L260.77 63.38L270.6 61.16L280.58 59.33L290.68 57.88L300.91 56.84L311.26 56.21L321.71 56L332.16 56.21L342.51 56.84ZM297.04 107.67L291.9 108.19L286.82 108.92L281.81 109.85L276.87 110.98L272 112.3L267.21 113.8L262.51 115.48L257.89 117.35L253.36 119.39L248.92 121.6L244.59 123.97L240.36 126.51L236.23 129.21L232.22 132.05L228.32 135.05L224.54 138.2L220.89 141.48L217.36 144.91L213.96 148.46L210.71 152.15L207.59 155.96L204.61 159.89L201.79 163.93L199.11 168.09L196.6 172.36L194.24 176.73L192.05 181.2L190.03 185.76L188.18 190.42L186.5 195.17L185.01 199.99L183.71 204.9L182.59 209.88L181.67 214.94L180.95 220.06L180.42 225.24L180.11 230.48L180 235.77L180.11 241.07L180.42 246.31L180.95 251.49L181.67 256.61L182.59 261.66L183.71 266.65L185.01 271.55L186.5 276.38L188.18 281.13L190.03 285.78L192.05 290.35L194.24 294.82L196.6 299.19L199.11 303.46L201.79 307.61L204.61 311.66L207.59 315.59L210.71 319.4L213.96 323.08L217.36 326.64L220.89 330.06L224.54 333.34L228.32 336.49L232.22 339.49L236.23 342.34L240.36 345.03L244.59 347.57L248.92 349.94L253.36 352.15L257.89 354.19L262.51 356.06L267.21 357.74L272 359.24L276.87 360.56L281.81 361.68L286.82 362.61L291.9 363.34L297.04 363.87L302.24 364.19L307.49 364.3L312.74 364.19L317.94 363.87L323.08 363.34L328.15 362.61L333.17 361.68L338.11 360.56L342.97 359.24L347.44 357.84L348.01 360.33L348.8 363.35L349.68 366.35L350.67 369.33L351.76 372.29L352.94 375.21L354.22 378.11L355.6 380.98L357.08 383.81L358.65 386.6L360.32 389.35L362.09 392.06L363.96 394.73L365.92 397.35L367.98 399.92L370.13 402.44L370.99 403.39L371.88 404.33L372.8 405.28L373.75 406.21L374.73 407.14L375.73 408.07L376.76 408.99L377.82 409.9L378.9 410.8L380 411.69L381.13 412.57L382.28 413.44L383.44 414.31L384.63 415.16L385.83 415.99L387.05 416.82L388.28 417.63L389.53 418.43L390.79 419.21L392.07 419.98L393.35 420.73L394.65 421.46L395.95 422.18L397.26 422.88L398.58 423.56L399.91 424.22L401.24 424.87L402.58 425.49L403.91 426.09L405.25 426.67L406.59 427.23L407.93 427.76L409.27 428.27L410.6 428.76L411.93 429.22L413.26 429.65L414.58 430.06L415.9 430.45L417.2 430.8L418.5 431.13L419.4 431.34L420.33 431.54L421.28 431.73L422.25 431.92L423.24 432.09L424.24 432.25L425.27 432.4L426.31 432.54L427.37 432.67L428.44 432.79L429.53 432.9L430.62 433L431.73 433.09L432.84 433.17L433.96 433.24L435.08 433.3L436.22 433.35L437.35 433.38L438.48 433.41L439.62 433.43L440.76 433.44L441.89 433.44L443.02 433.42L444.15 433.4L445.27 433.37L446.38 433.32L447.49 433.27L448.58 433.2L449.67 433.13L450.74 433.04L451.8 432.95L452.84 432.84L453.87 432.72L454.88 432.6L455.87 432.46L456.84 432.31L457.79 432.15L458.72 431.98L459.62 431.8L460.5 431.61L461.85 431.3L463.18 430.97L464.5 430.62L465.81 430.26L467.11 429.89L468.4 429.5L469.68 429.09L470.95 428.67L472.2 428.23L473.45 427.78L474.68 427.31L475.91 426.83L477.12 426.33L478.33 425.81L479.52 425.28L480.7 424.73L481.88 424.16L483.04 423.58L484.2 422.98L485.35 422.37L486.48 421.74L487.61 421.09L488.73 420.43L489.84 419.74L490.94 419.05L492.04 418.33L493.12 417.6L494.2 416.85L495.27 416.08L496.33 415.3L497.38 414.5L498.43 413.68L499.47 412.84L500.5 411.99L501.52 411.12L502.54 410.23L503.55 409.33L504.55 408.4L505.54 407.46L506.53 406.5L507.28 405.76L508.01 405.04L508.71 404.34L509.39 403.65L510.04 402.99L510.68 402.33L511.29 401.69L511.89 401.07L512.46 400.45L513.02 399.85L513.56 399.25L514.08 398.66L514.59 398.08L515.09 397.5L515.57 396.93L516.04 396.36L516.49 395.79L516.94 395.23L517.37 394.66L517.8 394.09L518.22 393.51L518.63 392.94L519.04 392.35L519.44 391.76L519.83 391.17L520.22 390.56L520.61 389.94L521 389.32L521.38 388.67L521.77 388.02L522.16 387.35L522.55 386.66L522.94 385.96L523.33 385.24L523.73 384.49L524.13 383.73L524.54 382.94L524.96 382.13L525.38 381.3L525.82 380.44L526.67 378.71L527.48 376.96L528.25 375.2L528.99 373.43L529.69 371.65L530.36 369.87L530.98 368.07L531.57 366.26L532.12 364.44L532.64 362.62L533.11 360.79L533.55 358.95L533.96 357.11L534.32 355.25L534.65 353.4L534.94 351.53L535.19 349.66L535.41 347.79L535.59 345.91L535.73 344.03L535.83 342.15L535.89 340.26L535.92 338.37L535.91 336.48L535.86 334.59L535.78 332.69L535.65 330.79L535.49 328.9L535.29 327L535.06 325.11L534.78 323.21L534.47 321.32L534.12 319.43L533.73 317.54L533.3 315.65L532.84 313.77L532.34 311.89L531.8 310.01L531.22 308.14L530.6 306.28L529.74 303.87L528.82 301.5L527.85 299.15L526.81 296.85L525.71 294.57L524.55 292.33L523.34 290.13L522.07 287.96L520.75 285.83L519.37 283.75L517.94 281.7L516.46 279.69L514.93 277.72L513.35 275.79L511.72 273.91L510.05 272.07L508.32 270.28L506.55 268.53L504.74 266.83L502.88 265.17L500.98 263.57L499.04 262.01L497.06 260.5L495.04 259.05L492.98 257.65L490.88 256.29L488.75 255L486.58 253.75L484.38 252.57L482.14 251.44L479.87 250.36L477.57 249.35L475.24 248.39L472.88 247.49L470.49 246.66L468.08 245.88L465.64 245.17L463.17 244.52L460.68 243.94L458.16 243.42L457.46 243.29L456.72 243.16L455.95 243.05L455.15 242.94L454.33 242.84L453.48 242.74L452.6 242.66L451.7 242.57L450.79 242.5L449.85 242.43L448.9 242.37L447.93 242.32L446.95 242.27L445.96 242.23L444.95 242.2L443.94 242.17L442.93 242.15L441.91 242.14L440.89 242.13L439.87 242.13L438.84 242.14L437.83 242.15L436.81 242.17L435.81 242.2L434.81 242.23L434.79 242.23L434.86 241.07L434.97 235.77L434.86 230.48L434.55 225.24L434.03 220.06L433.3 214.94L432.38 209.88L431.26 204.9L429.96 199.99L428.47 195.17L426.79 190.42L424.95 185.76L422.92 181.2L420.73 176.73L418.38 172.36L415.86 168.09L413.18 163.93L410.36 159.89L407.38 155.96L404.27 152.15L401.01 148.46L397.61 144.91L394.09 141.48L390.43 138.2L386.65 135.05L382.76 132.05L378.74 129.21L374.62 126.51L370.39 123.97L366.05 121.6L361.62 119.39L357.09 117.35L352.47 115.48L347.76 113.8L342.97 112.3L338.11 110.98L333.17 109.85L328.15 108.92L323.08 108.19L317.94 107.67L312.74 107.35L307.49 107.24L302.24 107.35L297.04 107.67ZM442.31 284.09L443.44 284.13L444.55 284.18L445.65 284.26L446.73 284.35L447.8 284.46L448.85 284.59L449.9 284.74L450.92 284.9L451.94 285.09L452.94 285.29L453.93 285.52L454.91 285.76L455.88 286.02L456.83 286.3L457.78 286.61L458.72 286.93L459.64 287.27L460.56 287.63L461.47 288.02L462.37 288.42L463.26 288.85L464.14 289.29L465.02 289.76L465.88 290.25L466.75 290.76L467.6 291.29L468.45 291.85L469.3 292.42L470.14 293.02L470.97 293.64L471.8 294.28L472.63 294.95L473.45 295.64L474.27 296.35L475.09 297.08L475.91 297.84L476.72 298.62L477.53 299.42L477.83 299.73L478.13 300.03L478.43 300.35L478.73 300.67L479.03 300.99L479.34 301.32L479.64 301.66L479.94 301.99L480.24 302.34L480.55 302.68L480.85 303.03L481.15 303.38L481.44 303.73L481.74 304.08L482.03 304.44L482.32 304.79L482.61 305.15L482.9 305.51L483.18 305.86L483.45 306.22L483.73 306.57L484 306.93L484.26 307.28L484.52 307.63L484.78 307.97L485.02 308.32L485.27 308.66L485.5 308.99L485.74 309.33L485.96 309.65L486.18 309.98L486.39 310.3L486.59 310.61L486.78 310.91L486.97 311.21L487.14 311.51L487.31 311.79L487.47 312.07L487.62 312.34L487.76 312.6L488.64 314.36L489.45 316.13L490.18 317.93L490.85 319.75L491.45 321.58L491.98 323.43L492.44 325.29L492.83 327.16L493.15 329.04L493.41 330.93L493.6 332.82L493.73 334.72L493.79 336.61L493.78 338.51L493.71 340.4L493.57 342.29L493.37 344.17L493.11 346.04L492.78 347.9L492.4 349.75L491.94 351.59L491.43 353.4L490.86 355.2L490.22 356.98L489.53 358.74L488.77 360.47L487.96 362.17L487.08 363.85L486.15 365.5L485.16 367.11L484.11 368.69L483 370.23L481.84 371.74L480.62 373.2L479.35 374.63L478.02 376L476.63 377.34L475.19 378.62L473.7 379.86L472.15 381.04L470.88 381.95L469.61 382.81L468.32 383.64L467.02 384.42L465.71 385.17L464.4 385.87L463.07 386.54L461.73 387.17L460.39 387.75L459.04 388.3L457.68 388.8L456.31 389.27L454.94 389.69L453.56 390.08L452.18 390.42L450.79 390.73L449.39 390.99L447.99 391.22L446.59 391.4L445.18 391.54L443.77 391.64L442.36 391.71L440.94 391.73L439.53 391.71L438.11 391.65L436.69 391.55L435.27 391.41L433.85 391.23L432.43 391L431.01 390.74L429.59 390.43L428.17 390.09L426.76 389.7L425.34 389.28L423.93 388.81L422.53 388.3L421.12 387.75L419.72 387.16L418.33 386.52L416.94 385.85L415.62 385.16L414.32 384.44L413.04 383.68L411.79 382.88L410.56 382.04L409.35 381.17L408.17 380.27L407.01 379.34L405.88 378.37L404.78 377.37L403.7 376.34L402.65 375.28L401.63 374.2L400.64 373.09L399.68 371.95L398.75 370.79L397.85 369.6L396.98 368.39L396.14 367.16L395.33 365.91L394.56 364.64L393.82 363.35L393.12 362.04L392.45 360.71L391.82 359.37L391.22 358.02L390.66 356.65L390.14 355.26L389.66 353.87L389.21 352.46L388.81 351.04L388.44 349.62L388.12 348.18L387.83 346.74L387.59 345.29L387.39 343.84L387.24 342.38L387.13 340.93L387.06 339.46L387.04 338L387.04 337.46L387.05 336.91L387.08 336.35L387.09 336.12L390.43 333.34L394.09 330.06L397.61 326.64L401.01 323.08L404.27 319.4L407.38 315.59L410.36 311.66L413.18 307.61L415.86 303.46L418.38 299.19L420.73 294.82L422.92 290.35L424.7 286.33L424.92 286.25L426 285.89L426.26 285.81L426.53 285.72L426.8 285.64L427.08 285.57L427.37 285.49L427.66 285.42L427.96 285.34L428.27 285.27L428.58 285.2L428.89 285.14L429.21 285.07L429.54 285.01L429.87 284.95L430.2 284.89L430.54 284.83L430.88 284.77L431.23 284.72L431.58 284.67L431.94 284.62L432.3 284.57L432.66 284.52L433.02 284.48L433.39 284.44L433.77 284.4L434.14 284.36L434.52 284.32L434.9 284.29L435.28 284.26L435.67 284.23L436.05 284.2L436.44 284.18L436.83 284.16L437.22 284.14L437.62 284.12L438.01 284.11L438.41 284.09L438.81 284.08L439.2 284.07L439.6 284.07L440 284.07L441.16 284.07L442.31 284.09Z" id="bjanH6PZa"></path></defs><g><g><g><use xlink:href="#bjanH6PZa" opacity="1" fill="#e1e1e1" fill-opacity="1"></use></g></g></g></svg>