<?xml version="1.0" encoding="UTF-8" standalone="no"?>
<!DOCTYPE svg PUBLIC "-//W3C//DTD SVG 1.1//EN" "http://www.w3.org/Graphics/SVG/1.1/DTD/svg11.dtd">
<svg version="1.1" xmlns="http://www.w3.org/2000/svg" xmlns:xlink="http://www.w3.org/1999/xlink" preserveAspectRatio="xMidYMid meet" viewBox="0 0 640 640" width="640" height="640"><defs><path d="M320 600C165.46 600 40 474.54 40 320C40 165.46 165.46 40 320 40C474.54 40 600 165.46 600 320C600 474.54 474.54 600 320 600Z" id="a166lCTjnj"></path><path d="M303.85 365.3C223.78 365.3 158.77 300.3 158.77 220.23C158.77 140.16 223.78 75.15 303.85 75.15C383.91 75.15 448.92 140.16 448.92 220.23C448.92 300.3 383.91 365.3 303.85 365.3Z" id="egZbiIm6D"></path><path d="M455.3 420C408.55 420 370.6 382.05 370.6 335.3C370.6 288.55 408.55 250.6 455.3 250.6C502.05 250.6 540 288.55 540 335.3C540 382.05 502.05 420 455.3 420Z" id="d4OEMPQL9"></path></defs><g><g><g><use xlink:href="#a166lCTjnj" opacity="1" fill="#383636" fill-opacity="1"></use></g><g><use xlink:href="#egZbiIm6D" opacity="1" fill="#ffffff" fill-opacity="1"></use></g><g><g><use xlink:href="#d4OEMPQL9" opacity="1" fill-opacity="0" stroke="#ffffff" stroke-width="42" stroke-opacity="1"></use></g></g></g></g></svg>