<?xml version="1.0" encoding="utf-8"?><svg xmlns="http://www.w3.org/2000/svg" xmlns:xlink="http://www.w3.org/1999/xlink"><symbol viewBox="0 0 640 640" id="albums"><defs><path d="M539 320c0 126.13-98.13 228.53-219 228.53S101 446.13 101 320 199.13 91.47 320 91.47 539 193.87 539 320z" id="aa"/><clipPath id="ac"><use xlink:href="#aa"/></clipPath><path d="M383.07 320.23c0 36.96-28.51 66.97-63.62 66.97-35.12 0-63.63-30.01-63.63-66.97 0-36.96 28.51-66.97 63.63-66.97 35.11 0 63.62 30.01 63.62 66.97z" id="ab"/><clipPath id="ad"><use xlink:href="#ab"/></clipPath><path d="M430.11 441.88c4.94-6.34 8.03-10.3 9.26-11.89a165.942 165.942 0 0 0 33.93-82.77c2.21-18.96-.53 4.6.68-5.79 6.48-55.52-15.53-110.56-58.51-146.31-2.43-2.02 12.69 10.55-1.36-1.13a136.801 136.801 0 0 0-23.16-15.57c-7.18-3.83-1.23-.66-4.63-2.47a155.687 155.687 0 0 0-66.71-18.19c-10.87-.46 4.35.19-3.41-.14-32.9-1.39-65.22 8.92-91.23 29.12-3.29 2.55-11.52 8.94-24.69 19.17" id="ae"/><path d="M209.82 249.15c-3.6 4.62-5.85 7.51-6.75 8.67a120.922 120.922 0 0 0-24.73 60.31c-1.61 13.81.39-3.35-.49 4.22a120.493 120.493 0 0 0 42.63 106.61c1.77 1.47-9.24-7.69.99.83 5.23 4.34 10.88 8.14 16.88 11.34 5.23 2.79.89.48 3.37 1.8 15 8.01 31.62 12.54 48.61 13.25 7.92.34-3.17-.13 2.49.11 23.97 1.01 47.52-6.5 66.47-21.22 2.4-1.86 8.4-6.52 18-13.97" id="af"/></defs><g clip-path="url(#ac)"><use xlink:href="#aa" fill-opacity="0" stroke="#000" stroke-width="56"/></g><g clip-path="url(#ad)"><use xlink:href="#ab" fill-opacity="0" stroke="#000" stroke-width="56"/></g><use xlink:href="#ae" fill-opacity="0" stroke="#000" stroke-width="28"/><use xlink:href="#af" fill-opacity="0" stroke="#000" stroke-width="28"/></symbol><symbol viewBox="0 0 640 640" id="artist"><defs><path d="M472.78 417.59l-10.13 110.66H412l-12.57-109.84c12.36 4.67 20.09 7.59 23.18 8.76 8.48 3.2 17.85 3.14 26.28-.18 3.19-1.25 11.15-4.39 23.89-9.4z" id="ba"/><path d="M482.1 383.83c0 24.18-20.63 43.82-46.04 43.82s-46.05-19.64-46.05-43.82c0-24.19 20.64-43.83 46.05-43.83 25.41 0 46.04 19.64 46.04 43.83z" id="bb"/><path d="M362.41 395.86c-.41-.4-.67-.65-.77-.76a56.77 56.77 0 0 0-46.11-15.93c-.99.11-3.47.39-7.45.83l1.01-28.09c1.07-.47 1.75-.77 2.02-.89 30.7-13.6 53.79-40.13 63.01-72.42.92-3.23-2.73 9.55.23-.8 2.91-10.17 4.38-20.69 4.38-31.27v-10.6c0-45.14-34.56-82.77-79.54-86.59-6.94-.59-.51-.05-20.53-1.75-9.42-.8-18.9-.49-28.25.91-13.51 2.04-.26.04-3.85.58-37.85 5.7-67.56 35.43-73.23 73.29-.42 2.79 1.9-12.68-.01.08-1.38 9.24-1.78 18.6-1.17 27.92 1.03 15.84.2 3.1.48 7.38 2.78 42.76 32.92 78.79 74.51 89.08.67.17-16.99-4.2-3.77-.93 3.95.98 6.42 4.91 5.58 8.9-.71 3.36-2.49 11.76-5.33 25.2-16.49 1.05-26.79 1.7-30.92 1.96-29.71 1.89-53 26.26-53.53 56.03-.26 14.94-.83 46.68-1.27 71.52a3.19 3.19 0 0 0 3.12 3.25l164.15 4.05" id="bc"/><path d="M376.03 268.19c-8.8-1.41-14.3-2.29-16.5-2.64-43.5-6.95-84.81-23.8-120.77-49.24-2.08-1.48-7.28-5.15-15.59-11.04-.75 1.73-1.22 2.81-1.41 3.24a77.153 77.153 0 0 1-46.08 42.29c-.43.14-1.5.5-3.21 1.08" id="bd"/><path d="M324.87 156.59c-1.45-4.93-2.35-8.01-2.71-9.25-13.33-45.55-76.94-48.03-93.77-3.65-.73 1.92-2.56 6.74-5.48 14.45" id="be"/></defs><use xlink:href="#ba" fill-opacity="0" stroke="#000" stroke-width="23"/><use xlink:href="#bb" fill-opacity="0" stroke="#000" stroke-width="23"/><use xlink:href="#bc" fill-opacity="0" stroke="#000" stroke-width="24"/><use xlink:href="#bd" fill-opacity="0" stroke="#000" stroke-width="24"/><use xlink:href="#be" fill-opacity="0" stroke="#000" stroke-width="24"/></symbol><symbol viewBox="0 0 640 640" id="forward"><defs><path d="M320 620.75c134.78 0 245.06-112.28 245.06-249.51h-61.27c0 102.92-82.7 187.14-183.79 187.14-101.09 0-183.79-84.22-183.79-187.14 0-102.93 82.7-187.14 183.79-187.14V260l222.38-110.18L320 40v81.72c-134.78 0-245.06 112.29-245.06 249.52 0 137.23 110.28 249.51 245.06 249.51z" id="ca"/></defs><use xlink:href="#ca"/><use xlink:href="#ca" fill-opacity="0" stroke="#000" stroke-opacity="0"/></symbol><symbol viewBox="0 0 640 640" id="music"><defs><path d="M462.28 425.17c-1.07-145.76-1.74-236.86-2-273.3-.04-4.62-4.25-8.08-8.79-7.22-45.1 8.55-157.7 29.91-199.31 37.8-15.16 2.88-26.08 16.21-25.91 31.64.4 35.41 1.39 123.94 2.97 265.59" id="da"/><path d="M455.85 217.25l-232.73 49.61" id="db"/><path d="M462.58 429.14c0 22.4-29.41 40.59-65.65 40.59-36.23 0-65.64-18.19-65.64-40.59 0-22.41 29.41-40.6 65.64-40.6 36.24 0 65.65 18.19 65.65 40.6z" id="dc"/><path d="M229.48 484.58c0 22.4-29.59 40.59-66.03 40.59s-66.03-18.19-66.03-40.59c0-22.4 29.59-40.59 66.03-40.59s66.03 18.19 66.03 40.59z" id="dd"/></defs><use xlink:href="#da" fill-opacity="0" stroke="#000" stroke-width="28"/><use xlink:href="#db" fill-opacity="0" stroke="#000" stroke-width="28"/><use xlink:href="#dc" fill-opacity="0" stroke="#000" stroke-width="28"/><use xlink:href="#dd" fill-opacity="0" stroke="#000" stroke-width="28"/></symbol><symbol viewBox="0 0 640 640" id="next"><defs><path d="M169.9 250L39.79 180v280l130.11-69.99L300 320l-130.1-70z" id="ea"/><path d="M470.1 250L340 180v280l130.1-69.99L600.21 320 470.1 250z" id="eb"/></defs><use xlink:href="#ea"/><use xlink:href="#eb"/></symbol><symbol viewBox="0 0 640 640" id="pause"><defs><path d="M360 40h180v560H360V40z" id="fa"/><path d="M40 40h180v560H40V40z" id="fb"/></defs><use xlink:href="#fa"/><use xlink:href="#fb"/></symbol><symbol viewBox="0 0 640 640" id="play"><defs><path d="M320.1 180L40 40v560l280.1-139.99 280.11-140L320.1 180z" id="ga"/></defs><use xlink:href="#ga"/></symbol><symbol viewBox="0 0 640 640" id="playing"><defs><path d="M340 407.68l-173.9 87.67v-350.7L340 232.32 513.9 320 340 407.68z" id="ha"/></defs><use xlink:href="#ha" fill-opacity="0" stroke="#000" stroke-width="28"/></symbol><symbol viewBox="0 0 640 640" id="podcast"><defs><path d="M383.63 333.03c0 36.96-28.51 66.97-63.63 66.97-35.12 0-63.63-30.01-63.63-66.97 0-36.96 28.51-66.97 63.63-66.97 35.12 0 63.63 30.01 63.63 66.97z" id="ia"/><path d="M400.49 509.63c4.06-2.27 6.61-3.68 7.62-4.25a247.574 247.574 0 0 0 105.7-115.53s-9.03 20.27-2.89 6.49c1.93-4.32 3.54-8.77 4.83-13.32 3.92-13.83 1.43-5.05 2.27-8.02a189.939 189.939 0 0 0-5.63-120.37 204.584 204.584 0 0 0-99.22-116.5c-1.69-.89-5.92-3.1-12.68-6.64-4.19-1.51-6.81-2.46-7.86-2.84a212.959 212.959 0 0 0-133.98-3.64c-.43.13-1.48.44-3.16.95-5.87 2.38-9.54 3.87-11 4.46a210.774 210.774 0 0 0-111.28 105.12c-.06.12-.21.44-.45.95-3.19 8.71-5.19 14.15-5.99 16.33a196.344 196.344 0 0 0-4.16 122.4c.54 1.87-3.24-11.14.45 1.54l5.17 15.46c5.94 15.65.85 2.25 1.79 4.72a195.423 195.423 0 0 0 98.99 107.25c1.53.72 5.35 2.54 11.48 5.44" id="ib"/><path d="M372.47 453.5c2.65-1.47 4.31-2.4 4.97-2.77a161.376 161.376 0 0 0 68.91-75.31s-5.89 13.21-1.88 4.23c1.25-2.82 2.3-5.72 3.14-8.69 2.56-9.01.94-3.29 1.48-5.23 7.33-25.86 6.04-53.4-3.67-78.47a133.344 133.344 0 0 0-64.68-75.95c-1.1-.57-3.86-2.02-8.27-4.32-2.73-.99-4.44-1.61-5.12-1.86-28.1-10.17-58.73-11-87.35-2.37-.27.08-.96.29-2.06.62l-7.17 2.91a137.396 137.396 0 0 0-72.54 68.53c-.04.08-.14.28-.3.61l-3.9 10.65a127.981 127.981 0 0 0-2.71 79.8c.35 1.22-2.12-7.27.29 1l3.37 10.08c3.87 10.21.56 1.47 1.17 3.08a127.39 127.39 0 0 0 64.53 69.92c1 .47 3.49 1.65 7.48 3.54" id="ic"/></defs><use xlink:href="#ia"/><use xlink:href="#ib" fill-opacity="0" stroke="#000" stroke-width="28"/><use xlink:href="#ic" fill-opacity="0" stroke="#000" stroke-width="28"/></symbol><symbol viewBox="0 0 640 640" id="recent"><defs><path d="M297.58 190.93v151.49l76.53 41.53 15.62-27.43-58.52-32.04-2.31-134.32-31.32.77z" id="jb"/><path d="M540 320c0 121.42-98.58 220-220 220s-220-98.58-220-220 98.58-220 220-220 220 98.58 220 220z" id="ja"/><clipPath id="jc"><use xlink:href="#ja"/></clipPath></defs><use xlink:href="#jb"/><g clip-path="url(#jc)"><use xlink:href="#ja" fill-opacity="0" stroke="#000" stroke-width="58"/></g></symbol><symbol viewBox="0 0 640 640" id="repeat"><defs><path d="M475.88 463.09c11.46-5.29 18.63-8.59 21.49-9.91 50.6-23.35 83.57-73.38 85.05-129.08.34-12.82-.48 18.19 0 0a136.029 136.029 0 0 0-46.66-106.21c-13.91-12.11 7.09 6.17-3.23-2.81-41.03-35.72-98.05-46.73-149.42-28.86-5.28 1.84-18.48 6.43-39.6 13.78" id="ka"/><path d="M158.14 200c-8.73 4.27-14.19 6.93-16.37 8-50.07 24.46-81.9 75.22-82.13 130.93-.05 12.83.07-18.2 0 0a120.15 120.15 0 0 0 52.85 100.04c14.58 9.86-10.62-7.18 0 0 45.03 30.45 102.96 34.29 151.6 10.05 4.79-2.38 16.76-8.35 35.91-17.89" id="kb"/><path d="M377.24 454.6l-48.41 75.77-41.65-97.25-41.65-97.24 90.05 21.47 90.06 21.48-48.4 75.77z" id="kc"/><path d="M276.09 169.19l56.08-70.27L363.39 200l31.21 101.08-87.3-30.81-87.3-30.81 56.09-70.27z" id="kd"/></defs><use xlink:href="#ka" fill-opacity="0" stroke="#000" stroke-width="42"/><use xlink:href="#kb" fill-opacity="0" stroke="#000" stroke-width="42"/><use xlink:href="#kc"/><use xlink:href="#kd"/></symbol><symbol viewBox="0 0 640 640" id="settings"><defs><path d="M349.12 100.02l.29.03.3.04.29.04.28.06.28.07.28.08.28.08.27.1.27.11.26.11.25.12.26.14.24.14.25.15.23.15.23.17.23.17.21.18.22.19.2.2.2.2.19.21.18.21.18.23.17.23.16.23.15.24.15.25.14.25.12.26.12.26.11.27.1.28.09.27.09.29.07.28.06.3.05.29 4.11 26.74.19 1.13.22 1.12.24 1.11.27 1.1.3 1.08.32 1.08.35 1.07.37 1.05.4 1.04.43 1.03.45 1.01.47 1.01.5.98.53.98.54.96.57.94.6.93.61.92.64.89.66.88.69.87.7.85.73.82.74.82.77.79.79.77.81.76.82.73.85.72.87.7.88.67.91.65.92.63.94.61.96.59.97.57 1 .54 1.01.52 1.02.49 1.05.47 1.05.45 1.06.41 1.07.39 1.07.36 1.08.33 1.08.3 1.09.28 1.09.24 1.09.22 1.1.19 1.1.16 1.1.14 1.1.1 1.1.08 1.1.05 1.11.03 1.1-.01 1.1-.03 1.1-.06 1.1-.09 1.09-.11 1.1-.14 1.08-.17 1.09-.2 1.08-.22 1.07-.26 1.07-.28 1.07-.3 1.06-.34 1.05-.36 1.04-.38 1.03-.42 1.03-.44 1.02-.47 1.01-.49 1-.53.98-.55.98-.57.97-.6.95-.63 21.5-14.56.24-.16.25-.15.25-.14.26-.13.26-.12.26-.11.26-.1.27-.09.27-.08.27-.08.27-.06.27-.05.28-.05.27-.03.28-.03.28-.01.27-.01h.28l.27.02.28.02.27.03.28.04.27.05.27.06.27.07.26.07.27.09.26.09.26.11.25.11.26.12.24.14.25.14.24.15.23.15.24.17.22.18.22.18.22.2.21.2 34.56 34.56.21.22.2.22.19.23.18.23.17.24.16.25.16.24.14.26.13.25.12.26.12.26.1.27.1.27.08.27.08.28.06.27.06.28.05.28.03.28.03.29.02.28v.57l-.01.28-.02.28-.04.28-.04.29-.05.28-.06.28-.08.27-.08.28-.09.27-.1.27-.12.27-.12.26-.13.26-.14.26-.16.26-.16.25-.17.24L480.53 217l-.66.93-.64.94-.61.96-.59.97-.56.98-.53.99-.51 1-.48 1.01-.45 1.02-.43 1.02-.4 1.04-.37 1.05-.35 1.05-.32 1.06-.29 1.06-.26 1.07-.24 1.08-.21 1.08-.19 1.09-.15 1.09-.13 1.09-.1 1.1-.07 1.1-.05 1.1-.02 1.1.01 1.11.04 1.1.07 1.11.09 1.1.12 1.11.15 1.1.18 1.1.2 1.1.24 1.09.26 1.1.29 1.08.32 1.09.35 1.08.37 1.07.41 1.07.43 1.06.45 1.05.48 1.03.51 1.01.53 1 .55.98.57.96.6.95.62.92.64.91.66.9.68.87.71.85.72.84.74.82.77.79.78.78.8.76.82.73.84.71.85.7.88.67.89.65.9.63.93.6.94.58.95.56.97.54.98.51 1 .49 1.01.46 1.03.44 1.04.41 1.05.39 1.06.36 1.08.34 1.09.31 1.1.29 1.11.25 1.12.23 25.48 4.91.29.06.28.07.28.08.27.09.27.09.27.11.25.11.26.13.25.13.24.14.24.15.23.15.22.17.22.17.22.17.2.19.2.19.2.2.18.2.18.21.18.22.16.22.16.23.15.23.14.24.13.24.13.25.12.25.11.26.1.26.09.26.08.27.07.27.07.28.05.28.05.28.03.28.03.29.01.29.01.29v48.89l-.01.3-.01.3-.03.29-.04.29-.04.29-.06.29-.07.28-.08.28-.08.27-.1.28-.11.26-.11.26-.12.26-.14.25-.14.25-.15.24-.16.24-.16.23-.17.22-.18.22-.19.21-.2.21-.2.2-.21.19-.22.18-.22.18-.23.17-.24.16-.24.15-.25.14-.25.14-.26.13-.26.12-.27.11-.28.1-.28.09-.28.08-.29.07-.29.06-.3.05-26.74 4.12-1.13.18-1.12.22-1.11.24-1.09.27-1.09.3-1.08.32-1.06.35-1.06.37-1.04.4-1.03.43-1.01.45-1.01.47-.98.5-.98.53-.96.54-.94.57-.93.6-.91.61-.9.64-.88.66-.87.68-.84.71-.83.72-.81.75-.8.77-.77.79-.76.8-.73.83-.72.85-.69.87-.68.88-.65.91-.63.92-.61.94-.59.96-.56.97-.55 1-.51 1.01-.5 1.02-.47 1.05-.44 1.05-.42 1.06-.39 1.07-.36 1.07-.33 1.08-.3 1.08-.27 1.09-.25 1.09-.22 1.09-.19 1.1-.16 1.1-.14 1.1-.1 1.1-.08 1.1-.05 1.11-.03 1.1.01 1.1.03 1.1.06 1.1.09 1.1.11 1.1.14 1.09.17 1.09.2 1.08.23 1.08.25 1.08.28 1.07.3 1.06.34 1.06.36 1.05.39 1.04.41 1.04.44 1.03.47 1.01.5 1.01.52 1 .55.99.57.98.61.97.63.95 14.55 21.5.16.24.15.25.14.25.13.26.12.26.11.26.1.26.09.27.09.27.07.27.06.27.06.27.04.28.03.27.03.28.02.28v.55l-.01.27-.03.28-.03.27-.04.28-.05.27-.05.27-.07.27-.08.26-.09.27-.09.26-.1.26-.12.25-.12.26-.13.24-.14.25-.15.24-.16.23-.17.24-.17.22-.19.22-.19.22-.21.21-34.56 34.56-.22.21-.22.2-.23.19-.23.18-.24.17-.24.16-.25.15-.25.15-.25.13-.26.12-.26.12-.27.1-.27.1-.27.08-.28.08-.27.06-.28.06-.28.05-.28.03-.28.03-.29.02h-.56l-.29-.01-.28-.02-.28-.04-.28-.04-.28-.05-.28-.06-.28-.07-.28-.09-.27-.09-.27-.1-.27-.11-.27-.13-.26-.13-.26-.14-.25-.15-.25-.17-.25-.17-15.35-11.25-.95-.68-.96-.66-.98-.62-.99-.6-1-.57-1.01-.54-1.02-.51-1.03-.49-1.04-.46-1.05-.43-1.05-.4-1.07-.37-1.07-.35-1.08-.32-1.09-.29-1.09-.26-1.09-.23-1.1-.21-1.11-.17-1.11-.15-1.11-.12-1.12-.09-1.12-.06-1.12-.04h-1.12l-1.13.02-1.12.05-1.12.09-1.13.11-1.12.14-1.12.16-1.12.2-1.11.23-1.12.25-1.11.29-1.1.31-1.11.34-1.09.38-1.09.4-1.09.43-1.07.46-1.06.49-1.04.51-1.02.53-1.01.56-.98.58-.97.61-.95.63-.93.65-.92.67-.89.7-.87.71-.85.74-.83.76-.81.77-.79.8-.77.82-.75.83-.73.86-.7.87-.68.89-.65.91-.64.92-.61.94-.59.96-.56.97-.54.99-.51 1-.49 1.02-.46 1.03-.44 1.05-.41 1.06-.38 1.07-.36 1.09-.33 1.1-.31 1.11-.28 1.12-.24 1.13-.23 1.14-.19 1.16-2.89 18.81-.05.3-.06.29-.07.29-.08.28-.1.28-.1.27-.1.27-.12.27-.13.25-.14.26-.14.24-.16.25-.16.23-.17.23-.17.22-.19.22-.19.21-.2.2-.2.2-.21.19-.22.18-.23.17-.23.17-.23.15-.24.15-.25.14-.25.14-.26.12-.26.11-.27.11-.27.1-.28.08-.28.08-.28.07-.28.06-.29.04-.3.04-.29.03-.3.01-.3.01h-48.89l-.29-.01-.29-.01-.29-.03-.28-.03-.28-.05-.28-.05-.28-.07-.27-.07-.27-.08-.26-.09-.26-.1-.26-.11-.25-.12-.25-.13-.24-.13-.24-.14-.23-.15-.23-.16-.22-.16-.22-.17-.21-.18-.2-.19-.2-.19-.19-.2-.19-.21-.17-.21-.17-.22-.17-.23-.15-.23-.15-.24-.14-.24-.13-.25-.13-.25-.11-.26-.11-.26-.09-.27-.09-.27-.08-.28-.07-.28-.06-.29-4.91-25.49-.23-1.12-.25-1.11-.29-1.09-.31-1.09-.34-1.08-.36-1.06-.39-1.05-.41-1.04-.44-1.03-.46-1.01-.49-1-.51-.98-.54-.97-.56-.95-.58-.94-.61-.92-.62-.91-.65-.89-.67-.87-.7-.86-.71-.84-.74-.82-.75-.8-.78-.78-.8-.77-.81-.74-.84-.72-.85-.71-.88-.68-.89-.66-.91-.64-.93-.62-.94-.6-.97-.57-.98-.55-.99-.53-1.01-.51-1.03-.48-1.05-.45-1.06-.43-1.07-.41-1.07-.38-1.08-.35-1.09-.32-1.08-.29-1.1-.26-1.09-.23-1.1-.21-1.1-.18-1.1-.15-1.11-.12-1.1-.09-1.11-.07-1.1-.03-1.11-.01-1.1.01-1.1.05-1.1.07-1.1.11-1.09.12-1.09.16-1.09.18-1.08.21-1.08.24-1.07.27-1.06.29-1.06.32-1.05.35-1.05.37-1.03.4-1.03.43-1.02.45-1.01.48-1 .51-.99.53-.98.56-.96.59-.96.61-.94.64-.93.66-21.83 16.01-.25.17-.25.16-.25.16-.26.14-.26.13-.27.13-.27.11-.27.1-.27.09-.28.08-.27.08-.28.06-.28.05-.28.04-.29.03-.28.03-.28.01h-.29l-.28-.01-.28-.01-.28-.03-.29-.04-.27-.04-.28-.06-.28-.07-.27-.07-.27-.09-.27-.09-.27-.11-.26-.11-.26-.12-.26-.14-.25-.14-.25-.15-.24-.16-.24-.17-.23-.18-.23-.19-.22-.2-.22-.21-34.56-34.56-.2-.21-.2-.22-.18-.22-.18-.23-.17-.23-.16-.23-.15-.24-.14-.25-.13-.25-.12-.25-.11-.25-.11-.26-.09-.26-.09-.27-.08-.27-.06-.26-.06-.27-.05-.28-.04-.27-.03-.28-.02-.27-.02-.28v-.27l.01-.28.01-.28.03-.27.03-.28.05-.27.05-.28.06-.27.08-.27.08-.27.09-.26.1-.27.11-.26.12-.26.13-.25.14-.25.15-.25.16-.25 14.55-21.49.63-.96.61-.96.57-.98.55-.99.52-1 .5-1.01.47-1.02.44-1.02.42-1.04.38-1.04.36-1.05.34-1.06.3-1.06.28-1.07.26-1.08.22-1.08.2-1.08.17-1.09.14-1.1.11-1.09.09-1.1.06-1.1.03-1.1.01-1.1-.03-1.11-.05-1.1-.07-1.1-.11-1.11-.14-1.1-.16-1.1-.19-1.09-.22-1.1-.24-1.09-.28-1.08-.3-1.09-.33-1.08-.36-1.07-.39-1.07-.41-1.06-.45-1.05-.47-1.04-.49-1.03-.52-1.01-.54-.99-.57-.98-.58-.96-.61-.94-.63-.92-.66-.9-.67-.89-.7-.87-.71-.84-.74-.83-.75-.81-.78-.79-.79-.76-.81-.75-.83-.72-.85-.71-.86-.68-.88-.66-.9-.64-.91-.62-.93-.59-.95-.57-.96-.55-.97-.52-.99-.5-1-.47-1.02-.45-1.02-.43-1.05-.4-1.05-.37-1.06-.35-1.08-.32-1.09-.3-1.1-.27-1.1-.24-1.12-.22-1.13-.19-26.75-4.11-.3-.05-.29-.06-.29-.08-.28-.08-.28-.09-.27-.1-.27-.11-.27-.12-.25-.13-.26-.13-.24-.15-.25-.15-.23-.16-.23-.17-.22-.18-.22-.18-.21-.19-.2-.2-.2-.21-.19-.21-.18-.22-.17-.22-.17-.23-.15-.24-.15-.24-.14-.25-.14-.25-.12-.26-.11-.26-.11-.26-.1-.28-.08-.27-.08-.28-.07-.28-.06-.29-.04-.29-.04-.29-.03-.29-.01-.3-.01-.3v-48.89l.01-.29.01-.29.03-.29.03-.28.05-.28.05-.28.07-.28.07-.27.08-.27.09-.26.1-.26.11-.26.12-.25.12-.25.14-.24.14-.24.15-.23.16-.23.16-.22.17-.22.18-.21.19-.2.19-.2.2-.19.21-.18.21-.18.22-.17.23-.16.23-.16.23-.15.25-.14.24-.13.26-.12.25-.12.27-.1.26-.1.28-.09.27-.08.28-.06.29-.06 25.49-4.91 1.12-.23 1.11-.26 1.1-.28 1.08-.31 1.08-.34 1.06-.36 1.06-.39 1.03-.41 1.03-.44 1.01-.47 1-.48.98-.51.97-.54.96-.56.93-.58.93-.61.9-.62.89-.65.88-.68.85-.69.84-.71.82-.74.8-.75.79-.78.76-.8.74-.81.73-.84.7-.85.69-.88.66-.89.64-.91.62-.93.59-.94.58-.96.55-.98.53-1 .5-1.01.49-1.03.45-1.04.43-1.06.41-1.07.37-1.08.35-1.08.32-1.08.29-1.09.26-1.09.23-1.1.21-1.1.18-1.1.15-1.1.12-1.11.09-1.1.07-1.11.03-1.1.01-1.11-.01-1.1-.05-1.1-.07-1.1-.1-1.1-.13-1.09-.16-1.09-.18-1.09-.21-1.08-.24-1.08-.26-1.07-.3-1.06-.32-1.06-.34-1.05-.37-1.05-.4-1.03-.43-1.03-.45-1.02-.48-1.01-.51-1-.53-.99-.56-.98-.59-.97-.61-.95-.64-.94-.66-.93-16.01-21.83-.17-.25-.16-.25-.15-.25-.15-.26-.13-.26-.12-.27-.11-.27-.1-.27-.1-.27-.08-.28-.07-.28-.06-.28-.06-.28-.04-.28-.03-.28-.02-.28-.02-.29v-.28l.01-.29.02-.28.02-.28.04-.28.04-.28.06-.28.07-.28.07-.27.09-.27.09-.27.1-.27.12-.26.12-.26.13-.26.15-.25.15-.25.16-.24.17-.24.18-.23.19-.23.2-.22.21-.22 34.57-34.56.21-.2.22-.2.22-.18.22-.18.24-.17.23-.16.24-.14.25-.15.24-.13.26-.12.25-.11.26-.11.26-.09.27-.09.26-.07.27-.07.27-.06.27-.05.28-.04.27-.03.28-.02.27-.01.28-.01.27.01.28.02.28.02.27.04.28.04.27.05.27.07.27.07.27.08.27.09.26.1.26.11.26.12.26.13.25.14.25.15.24.16 27.76 18.81.93.61.95.59.95.57.97.54.98.51.99.49.99.46 1.01.44 1.01.41 1.03.38 1.03.36 1.03.33 1.05.31 1.05.28 1.05.25 1.06.23 1.07.2 1.06.18 1.08.15 1.07.12 1.08.1 1.08.07 1.08.04 1.09.02 1.08-.01 1.09-.04 1.08-.06 1.08-.09 1.09-.12 1.08-.14 1.08-.17 1.07-.2 1.08-.23 1.07-.25 1.06-.28 1.06-.31 1.06-.33 1.05-.36 1.05-.39 1.03-.42 1.03-.44 1.02-.46.99-.49.99-.51.96-.53.96-.56.93-.58.92-.6.9-.62.88-.64.87-.66.85-.69.83-.7.81-.72.79-.74.78-.76.75-.78.74-.8.71-.81.69-.83.68-.85.65-.86.63-.88.61-.9.59-.91.57-.92.54-.94.52-.96.5-.97.48-.98.45-.99.42-1.01.41-1.02.38-1.03.35-1.05.33-1.05.3-1.07.28-1.07.25-1.09.23-1.1 6.33-32.91.06-.29.07-.28.08-.28.09-.27.09-.27.11-.27.11-.25.13-.26.13-.25.14-.24.15-.24.15-.23.17-.22.17-.22.17-.22.19-.2.19-.2.2-.2.2-.18.21-.18.22-.18.22-.16.23-.16.23-.15.24-.14.24-.13.25-.13.25-.12.26-.11.26-.1.26-.09.27-.08.27-.07.28-.07.28-.05.28-.05.28-.03.29-.03.29-.01.29-.01h48.89l.3.01.3.01zM301.3 142.6l-.31 1.5-.34 1.48-.38 1.48-.42 1.45-.45 1.45-.48 1.42-.52 1.42-.55 1.39-.58 1.38-.62 1.36-.65 1.34-.68 1.33-.71 1.3-.75 1.29-.77 1.27-.81 1.24-.83 1.23-.87 1.2-.89 1.18-.92 1.16-.95 1.14-.98 1.11-1 1.09-1.03 1.06-1.06 1.04-1.09 1.02-1.11.98-1.13.96-1.16.94-1.19.9-1.21.88-1.23.85-1.25.82-1.28.79-1.3.77-1.32.73-1.35.7-1.36.66-1.39.64-1.4.6-1.42.57-1.43.53-1.44.5-1.45.45-1.45.42-1.46.39-1.46.34-1.47.31-1.47.27-1.47.23-1.48.2-1.48.16-1.49.12-1.48.09-1.48.05-1.48.02-1.49-.03-1.48-.06-1.47-.09-1.48-.13-1.47-.17-1.47-.21-1.46-.24-1.46-.27-1.45-.31-1.44-.35-1.43-.39-1.43-.41-1.42-.46-1.41-.49-1.4-.53-1.38-.56-1.38-.59-1.37-.64-1.35-.66-1.33-.71-1.33-.73-1.31-.78-1.29-.8-1.28-.85-22.19-15.03-24.86 24.87 11.87 16.2.91 1.27.87 1.29.84 1.31.8 1.32.76 1.34.73 1.35.7 1.37.65 1.38.62 1.4.59 1.4.54 1.42.51 1.43.48 1.44.43 1.45.4 1.45.36 1.47.33 1.47.29 1.48.25 1.49.21 1.49.17 1.49.14 1.5.1 1.51.07 1.5.02 1.51-.01 1.51-.05 1.51-.09 1.52-.13 1.51-.17 1.51-.2 1.51-.24 1.5-.28 1.51-.32 1.49-.36 1.5-.4 1.49-.43 1.48-.48 1.48-.51 1.47-.56 1.47-.59 1.45-.62 1.42-.66 1.41-.69 1.38-.72 1.37-.76 1.34-.78 1.31-.82 1.3-.85 1.27-.87 1.24-.91 1.22-.93 1.2-.97 1.16-.99 1.15-1.01 1.11-1.05 1.09-1.07 1.06-1.1 1.04-1.12 1-1.14.98-1.18.95-1.19.92-1.22.89-1.24.86-1.26.82-1.28.8-1.31.76-1.32.74-1.35.7-1.36.66-1.39.64-1.4.6-1.42.56-1.44.54-1.45.49-1.47.46-1.49.43-1.5.39-1.52.35-1.53.31-18.88 3.63v35.16l19.83 3.05 1.54.26 1.53.3 1.52.33 1.5.37 1.49.4 1.47.44 1.46.48 1.44.51 1.42.55 1.41.58 1.39.62 1.37.65 1.35.68 1.33.72 1.31.74 1.3.78 1.27.81 1.25.85 1.22.87 1.21.9 1.18.94 1.16.96 1.13.99 1.11 1.02 1.09 1.05 1.06 1.08 1.03 1.1 1.01 1.14.97 1.16.95 1.18.93 1.21.89 1.24.87 1.26.83 1.28.8 1.32.78 1.33.74 1.36.71 1.38.67 1.4.65 1.43.6 1.44.57 1.45.53 1.46.49 1.47.46 1.47.41 1.48.38 1.49.33 1.49.3 1.49.26 1.5.23 1.51.18 1.5.14 1.51.11 1.51.07 1.51.03 1.51v1.5l-.05 1.51-.08 1.51-.12 1.5-.16 1.5-.19 1.49-.23 1.49-.27 1.48-.31 1.48-.34 1.47-.39 1.46-.42 1.46-.45 1.45-.49 1.43-.53 1.43-.57 1.41-.61 1.41-.64 1.39-.67 1.38-.72 1.37-.75 1.35-.79 1.34-.82 1.32-.86 1.3-10.79 15.93 24.87 24.86 16.19-11.87 1.27-.91 1.29-.87 1.31-.83 1.32-.81 1.34-.76 1.35-.73 1.37-.69 1.38-.66 1.4-.62 1.4-.58 1.42-.54 1.43-.51 1.44-.48 1.45-.43 1.45-.4 1.47-.37 1.47-.32 1.48-.29 1.49-.25 1.49-.21 1.49-.18 1.5-.14 1.51-.1 1.5-.06 1.51-.03 1.51.02 1.51.05 1.51.09 1.52.12 1.5.17 1.51.2 1.51.24 1.5.29 1.5.31 1.49.36 1.49.4 1.48.44 1.48.47 1.47.51 1.46.56 1.45.59 1.43.62 1.41.66 1.38.69 1.36.72 1.34.76 1.32.78 1.29.82 1.27.85 1.25.87 1.22.91 1.19.93 1.17.97 1.14.99 1.12 1.02 1.09 1.04 1.06 1.07 1.04 1.1 1 1.12.98 1.15.95 1.17.92 1.19.89 1.22.86 1.24.82 1.26.8 1.28.77 1.31.73 1.32.7 1.35.67 1.37.63 1.38.6 1.4.57 1.42.53 1.44.5 1.46.46 1.47.42 1.49.39 1.5.35 1.52.32 1.53 3.63 18.87h35.17l1.82-11.89.27-1.58.3-1.56.34-1.55.38-1.53.41-1.52.45-1.5.49-1.49.53-1.46.56-1.45.6-1.43.63-1.41.67-1.39.7-1.38.74-1.35.77-1.33.8-1.31.84-1.28.86-1.27.9-1.24.93-1.21.96-1.2.99-1.16 1.03-1.15 1.05-1.11 1.08-1.09 1.11-1.07 1.14-1.03 1.16-1.01 1.19-.98 1.22-.95 1.25-.92 1.28-.89 1.29-.86 1.33-.83 1.35-.8 1.37-.76 1.4-.74 1.43-.69 1.44-.67 1.47-.63 1.49-.59 1.49-.55 1.5-.51 1.51-.47 1.51-.44 1.52-.39 1.52-.35 1.53-.31 1.53-.27 1.53-.23 1.54-.19 1.54-.15 1.53-.11 1.54-.07 1.54-.03h1.53l1.53.05 1.54.08 1.52.13 1.52.16 1.52.2 1.52.25 1.5.28 1.5.32 1.49.35 1.49.4 1.48.43 1.46.48 1.46.51 1.44.55 1.44.59 1.42.62 1.41.67 1.39.7 1.39.74 1.36.78 1.36.82 1.33.85 1.32.89 1.3.93 9.71 7.12 24.87-24.87-10.78-15.92-.86-1.3-.82-1.33-.79-1.33-.75-1.36-.72-1.36-.68-1.38-.64-1.4-.6-1.4-.57-1.42-.53-1.42-.49-1.44-.46-1.45-.42-1.45-.38-1.46-.34-1.48-.31-1.47-.27-1.49-.23-1.49-.2-1.49-.16-1.5-.12-1.5-.08-1.5-.04-1.51-.01-1.51.03-1.51.07-1.5.11-1.51.15-1.51.18-1.51.22-1.5.26-1.5.3-1.49.34-1.5.37-1.48.42-1.48.45-1.48.49-1.46.53-1.46.57-1.45.6-1.44.65-1.43.67-1.4.71-1.39.75-1.35.77-1.34.8-1.31.84-1.29.86-1.26.89-1.24.93-1.21.95-1.18.98-1.16 1-1.13 1.03-1.11 1.06-1.08 1.09-1.05 1.11-1.02 1.13-.99 1.16-.96 1.18-.94 1.21-.9 1.23-.87 1.25-.85 1.27-.81 1.29-.78 1.31-.74 1.33-.72 1.35-.68 1.38-.65 1.38-.62 1.41-.58 1.42-.55 1.45-.51 1.45-.48 1.47-.44 1.49-.4 1.5-.37 1.52-.33 1.53-.3 1.54-.26 19.84-3.05v-35.17l-18.86-3.62-1.53-.31-1.52-.35-1.5-.39-1.49-.43-1.47-.46-1.46-.49-1.44-.54-1.42-.56-1.4-.6-1.39-.64-1.36-.66-1.35-.7-1.32-.74-1.31-.76-1.28-.8-1.26-.82-1.24-.86-1.22-.89-1.19-.92-1.18-.95-1.14-.98-1.12-1-1.1-1.04-1.07-1.06-1.04-1.09-1.02-1.11-.99-1.15-.97-1.16-.93-1.2-.91-1.22-.87-1.24-.85-1.27-.82-1.3-.78-1.31-.75-1.34-.73-1.37-.69-1.38-.65-1.41-.63-1.42-.59-1.45-.55-1.47-.52-1.47-.47-1.48-.44-1.48-.39-1.49-.36-1.5-.32-1.5-.28-1.5-.25-1.5-.2-1.51-.17-1.51-.13-1.52-.09-1.51-.05-1.51-.01-1.51.02-1.51.07-1.51.1-1.5.13-1.5.18-1.5.21-1.49.25-1.48.29-1.48.33-1.48.36-1.46.4-1.46.43-1.45.48-1.43.51-1.43.54-1.42.59-1.41.62-1.39.65-1.38.69-1.37.73-1.35.77-1.34.8-1.32.84-1.31.87-1.29.91-1.27 11.87-16.19-24.87-24.86-15.92 10.78-1.3.86-1.33.82-1.33.79-1.36.75-1.36.71-1.38.68-1.4.64-1.4.6-1.42.57-1.42.53-1.44.49-1.45.46-1.45.42-1.46.38-1.48.34-1.47.31-1.49.27-1.49.23-1.49.2-1.5.16-1.5.12-1.5.08-1.51.04-1.51.01-1.51-.03-1.5-.07-1.51-.11-1.51-.14-1.51-.19-1.5-.22-1.5-.26-1.49-.3-1.5-.34-1.48-.37-1.48-.41-1.48-.46-1.46-.49-1.46-.53-1.45-.57-1.44-.6-1.43-.65-1.4-.67-1.38-.71-1.36-.75-1.34-.77-1.31-.8-1.28-.84-1.27-.86-1.23-.89-1.21-.93-1.19-.95-1.16-.98-1.13-1-1.1-1.03-1.08-1.06-1.05-1.09-1.02-1.11-1-1.13-.96-1.16-.93-1.18-.91-1.21-.87-1.23-.84-1.25-.81-1.27-.78-1.29-.75-1.31-.72-1.33-.68-1.35-.65-1.38-.62-1.38-.58-1.41-.55-1.42-.51-1.45-.48-1.45-.44-1.47-.4-1.49-.37-1.5-.33-1.52-.3-1.53-.26-1.54-3.05-19.84h-35.17l-5.06 26.3z" id="lb"/><path d="M410.04 325.87c0 45.33-37.26 82.13-83.15 82.13-45.89 0-83.15-36.8-83.15-82.13s37.26-82.13 83.15-82.13c45.89 0 83.15 36.8 83.15 82.13z" id="la"/><clipPath id="lc"><use xlink:href="#la"/></clipPath></defs><use xlink:href="#lb"/><g clip-path="url(#lc)"><use xlink:href="#la" fill-opacity="0" stroke="#000" stroke-width="38"/></g></symbol><symbol viewBox="0 0 640 640" id="shuffle"><defs><path d="M441.26 185.19h-50.93c-55.88 0-104.75 37.61-119.07 91.63-.93 3.51 4.65-17.55-.25.97a144.39 144.39 0 0 0-4.8 33.78c-.36 15.56-.51 24.34-.45 26.34 2.14 65.88-55.34 110.27-134.84 108.72-4.77-.1-16.71-.33-35.8-.71" id="ma"/><path d="M441.18 454.36h-50.93c-55.88 0-104.75-37.62-119.07-91.63-.93-3.52 4.65 17.55-.25-.97a144.465 144.465 0 0 1-4.8-33.78c-.36-15.56-.51-24.34-.45-26.34 2.15-65.88-55.34-110.28-134.84-108.72-4.77.1-16.71.33-35.8.7" id="mb"/><path d="M513.61 236.24L440 289.69V75.88l73.61 53.44 73.61 53.46-73.61 53.46z" id="mc"/><path d="M513.61 506.55L440 560V346.19l73.61 53.44 73.61 53.46-73.61 53.46z" id="md"/></defs><use xlink:href="#ma" fill-opacity="0" stroke="#000" stroke-width="42"/><use xlink:href="#mb" fill-opacity="0" stroke="#000" stroke-width="42"/><use xlink:href="#mc"/><use xlink:href="#md"/></symbol><symbol viewBox="0 0 640 640" id="volume"><defs><path d="M40 206.03h81.41L284.22 92.06v455.88L122.25 434.56l-.04-.03-.04-.03-.04-.03-.04-.03-.03-.03-.04-.03-.03-.04-.03-.03-.04-.04-.03-.03-.03-.04-.03-.03-.03-.04-.02-.04-.03-.04-.03-.04-.02-.03-.03-.04-.02-.05-.02-.04-.02-.04-.02-.04-.02-.04-.02-.05-.02-.04-.01-.04-.02-.05-.01-.04-.01-.05-.02-.04-.01-.05-.01-.05-.01-.04v-.05l-.01-.05v-.04l-.01-.05v-.14 1.02H40V206.03z" id="na"/><path d="M362.22 440c58.6-29.23 87.9-70.37 87.9-123.4S420.08 224.71 360 200l2.22 240z" id="nb"/><path d="M401.94 32.83l11.33 6.93 11.02 6.96 10.73 7 10.41 7.03 10.12 7.06 9.82 7.1 9.51 7.14 9.21 7.16 8.91 7.2 8.61 7.24 8.31 7.27 8 7.3 7.7 7.34 7.4 7.37 7.1 7.4 6.79 7.44 6.5 7.47 6.19 7.51 5.89 7.54 5.58 7.57 5.29 7.61 4.98 7.64 4.68 7.68 4.38 7.71 4.08 7.74 3.77 7.78 3.48 7.81 3.17 7.85 2.87 7.88 2.57 7.91 2.26 7.95 1.96 7.98 1.66 8.01 1.36 8.05 1.06 8.09.76 8.11.45 8.15.15 8.19-.15 8.19-.45 8.15-.76 8.11-1.06 8.09-1.36 8.05-1.66 8.01-1.96 7.98-2.26 7.95-2.57 7.91-2.87 7.88-3.17 7.85-3.48 7.81-3.77 7.78-4.08 7.74-4.38 7.71-4.68 7.68-4.98 7.64-5.29 7.61-5.58 7.57-5.89 7.54-6.19 7.51-6.5 7.47-6.79 7.44-7.1 7.4-7.4 7.37-7.7 7.34-8 7.3-8.31 7.27-8.61 7.24-8.91 7.2-9.21 7.16-9.51 7.14-9.82 7.1-10.12 7.06-10.41 7.03-10.73 7-11.02 6.96-11.33 6.93-11.62 6.9L380 620V20l10.32 5.93 11.62 6.9zm-13.46 504.31l8.27-4.71 8.05-4.75 7.84-4.8 7.62-4.84 7.41-4.88 7.19-4.94 6.98-4.97 6.76-5.03 6.55-5.06 6.33-5.12 6.12-5.16 5.91-5.2 5.69-5.25 5.47-5.3 5.26-5.34 5.05-5.38 4.83-5.44 4.62-5.47 4.4-5.52 4.18-5.57 3.98-5.61 3.75-5.66 3.55-5.71 3.32-5.75 3.12-5.79 2.9-5.84 2.68-5.89 2.47-5.93 2.25-5.97 2.04-6.02 1.83-6.07 1.61-6.11 1.39-6.16 1.19-6.2.96-6.25.75-6.3.54-6.34.32-6.38.11-6.43-.11-6.43-.32-6.38-.54-6.34-.75-6.29-.96-6.24-1.19-6.19-1.39-6.15-1.61-6.1-1.83-6.05-2.04-6.01-2.25-5.96-2.47-5.91-2.68-5.87-2.9-5.81-3.12-5.78-3.32-5.72-3.55-5.68-3.75-5.63-3.98-5.58-4.18-5.54-4.4-5.49-4.62-5.44-4.83-5.4-5.05-5.34-5.26-5.31-5.47-5.25-5.69-5.21-5.91-5.16-6.12-5.11-6.33-5.07-6.55-5.02-6.76-4.97-6.98-4.93-7.19-4.88-7.41-4.83-7.62-4.78-7.84-4.74-8.05-4.69-8.27-4.65-8.48-4.59V541.8l8.48-4.66z" id="nc"/></defs><use xlink:href="#na"/><use xlink:href="#nb"/><use xlink:href="#nc"/></symbol></svg>