<svg xmlns="http://www.w3.org/2000/svg" xmlns:xlink="http://www.w3.org/1999/xlink" width="640" height="640"><defs><path d="M462.28 425.17c-1.07-145.76-1.74-236.86-2-273.3-.04-4.62-4.25-8.08-8.79-7.22-45.1 8.55-157.7 29.91-199.31 37.8-15.16 2.88-26.08 16.21-25.91 31.64.4 35.41 1.39 123.94 2.97 265.59" id="a"/><path d="M455.85 217.25l-232.73 49.61" id="b"/><path d="M462.58 429.14c0 22.4-29.41 40.59-65.65 40.59-36.23 0-65.64-18.19-65.64-40.59 0-22.41 29.41-40.6 65.64-40.6 36.24 0 65.65 18.19 65.65 40.6z" id="c"/><path d="M229.48 484.58c0 22.4-29.59 40.59-66.03 40.59s-66.03-18.19-66.03-40.59c0-22.4 29.59-40.59 66.03-40.59s66.03 18.19 66.03 40.59z" id="d"/></defs><use xlink:href="#a" fill-opacity="0" stroke="#000" stroke-width="28"/><use xlink:href="#b" fill-opacity="0" stroke="#000" stroke-width="28"/><use xlink:href="#c" fill-opacity="0" stroke="#000" stroke-width="28"/><use xlink:href="#d" fill-opacity="0" stroke="#000" stroke-width="28"/></svg>