<svg xmlns="http://www.w3.org/2000/svg" xmlns:xlink="http://www.w3.org/1999/xlink" width="640" height="640"><defs><path d="M475.88 463.09c11.46-5.29 18.63-8.59 21.49-9.91 50.6-23.35 83.57-73.38 85.05-129.08.34-12.82-.48 18.19 0 0a136.029 136.029 0 0 0-46.66-106.21c-13.91-12.11 7.09 6.17-3.23-2.81-41.03-35.72-98.05-46.73-149.42-28.86-5.28 1.84-18.48 6.43-39.6 13.78" id="a"/><path d="M158.14 200c-8.73 4.27-14.19 6.93-16.37 8-50.07 24.46-81.9 75.22-82.13 130.93-.05 12.83.07-18.2 0 0a120.15 120.15 0 0 0 52.85 100.04c14.58 9.86-10.62-7.18 0 0 45.03 30.45 102.96 34.29 151.6 10.05 4.79-2.38 16.76-8.35 35.91-17.89" id="b"/><path d="M377.24 454.6l-48.41 75.77-41.65-97.25-41.65-97.24 90.05 21.47 90.06 21.48-48.4 75.77z" id="c"/><path d="M276.09 169.19l56.08-70.27L363.39 200l31.21 101.08-87.3-30.81-87.3-30.81 56.09-70.27z" id="d"/></defs><use xlink:href="#a" fill-opacity="0" stroke="#000" stroke-width="42"/><use xlink:href="#b" fill-opacity="0" stroke="#000" stroke-width="42"/><use xlink:href="#c"/><use xlink:href="#d"/></svg>