<svg xmlns="http://www.w3.org/2000/svg" xmlns:xlink="http://www.w3.org/1999/xlink" width="640" height="640"><defs><path d="M441.26 185.19h-50.93c-55.88 0-104.75 37.61-119.07 91.63-.93 3.51 4.65-17.55-.25.97a144.39 144.39 0 0 0-4.8 33.78c-.36 15.56-.51 24.34-.45 26.34 2.14 65.88-55.34 110.27-134.84 108.72-4.77-.1-16.71-.33-35.8-.71" id="a"/><path d="M441.18 454.36h-50.93c-55.88 0-104.75-37.62-119.07-91.63-.93-3.52 4.65 17.55-.25-.97a144.465 144.465 0 0 1-4.8-33.78c-.36-15.56-.51-24.34-.45-26.34 2.15-65.88-55.34-110.28-134.84-108.72-4.77.1-16.71.33-35.8.7" id="b"/><path d="M513.61 236.24L440 289.69V75.88l73.61 53.44 73.61 53.46-73.61 53.46z" id="c"/><path d="M513.61 506.55L440 560V346.19l73.61 53.44 73.61 53.46-73.61 53.46z" id="d"/></defs><use xlink:href="#a" fill-opacity="0" stroke="#000" stroke-width="42"/><use xlink:href="#b" fill-opacity="0" stroke="#000" stroke-width="42"/><use xlink:href="#c"/><use xlink:href="#d"/></svg>